<?xml version="1.0" encoding="UTF-8"?>
<svg width="361px" height="495px" viewBox="0 0 361 495" version="1.1" xmlns="http://www.w3.org/2000/svg" xmlns:xlink="http://www.w3.org/1999/xlink">
    <!-- Generator: sketchtool 64 (101010) - https://sketch.com -->
    <title>D86E87E3-2661-4C98-85ED-9B97692552A5</title>
    <desc>Created with sketchtool.</desc>
    <g id="Page-1" stroke="none" stroke-width="1" fill="none" fill-rule="evenodd" opacity="0.401948475">
        <g id="5.3.1.-Выбор-квартиры-_-выбранный-этаж--Цвет" transform="translate(-364.000000, -204.000000)" fill="#86B953">
            <g id="Group-2" transform="translate(0.000000, 12.000000)">
                <g id="Group-2678-Copy" transform="translate(364.000000, 192.000000)">
                    <path d="M218,-1.58195679e-12 L217.999388,0.624 L276.174387,0.624517034 L276.173388,82.57 L360.531424,82.5701483 L360.531424,132.096337 L276.173388,132.096 L276.173388,132.328 L315.673153,132.328569 L315.673153,261.098333 L276.173388,261.098 L276.175147,370.453803 C282.717018,382.581835 286.457226,396.636541 286.457226,411.620014 C286.457226,457.385501 251.563529,494.486206 208.520471,494.486206 C165.478459,494.486206 130.584761,457.385501 130.584761,411.620014 C130.584761,408.182265 130.781649,404.793407 131.164089,401.465492 L0.530388393,401.46612 L0.530388393,127.46612 L137.777388,127.466 L137.777388,127 L93,127 L93,-1.58195679e-12 L218,-1.58195679e-12 Z" id="Combined-Shape" opacity="0.67061942"></path>
                </g>
            </g>
        </g>
    </g>
</svg>