<svg xmlns="http://www.w3.org/2000/svg" width="21" height="25" viewBox="0 0 21 25">
    <g fill="none" fill-rule="evenodd">
        <g>
            <g>
                <g>
                    <path fill="#FFF" stroke="#C2A07C" d="M2 0h11.444L19 5.75V21c0 1.105-.895 2-2 2H2c-1.105 0-2-.895-2-2V2C0 .895.895 0 2 0z" transform="translate(-860 -614) translate(861 240) translate(.167 374.935)"/>
                    <path fill="#C2A07C" fill-rule="nonzero" d="M16.953 13.867c-.102.082-.392.133-.576.133-.6 0-1.336-.36-2.377-.943.402-.038.765-.057 1.094-.057.6 0 .775 0 1.365.196.586.19.59.589.494.671zM7 14c.214-.405.433-.834.656-1.292.545-1.113.893-1.99 1.148-2.708.513 1.007 1.151 1.86 1.897 2.545.094.086.192.168.299.255-1.522.328-2.84.723-4 1.2zM8.86 4c.231 0 .364.744.374 1.447.01.698-.115 1.187-.275 1.553-.132-.541-.193-1.387-.193-1.942 0 0-.01-1.058.095-1.058zM3 18c.157-.55.769-1.642 1.674-2.612.056-.058.197-.23.326-.388-.946 1.972-1.581 2.753-2 3zm13.757-5.145c-.299-.321-.967-.489-1.977-.503-.686-.01-1.507.057-2.377.186-.387-.244-.787-.507-1.103-.828-.844-.862-1.547-2.055-1.987-3.367.027-.125.053-.23.075-.34 0 0 .475-2.946.347-3.943-.017-.138-.026-.177-.061-.282l-.04-.12c-.127-.324-.382-.669-.782-.65L8.62 3h-.004c-.444 0-.809.248-.901.615-.29 1.164.009 2.898.55 5.144l-.141.37c-.387 1.024-.87 2.059-1.297 2.969l-.057.12c-.448.958-.857 1.772-1.226 2.462l-.382.22c-.026.02-.681.393-.835.493-1.3.848-2.165 1.81-2.309 2.577-.045.24-.011.551.22.7l.37.2c.16.087.33.13.502.13.927 0 2.004-1.255 3.484-4.076 1.714-.608 3.665-1.116 5.374-1.394 1.301.8 2.9 1.356 3.911 1.356.18 0 .334-.02.462-.058.193-.053.356-.172.457-.34.193-.321.237-.762.18-1.217-.013-.134-.114-.301-.22-.416z" transform="translate(-860 -614) translate(861 240) translate(.167 374.935)"/>
                </g>
            </g>
        </g>
    </g>
</svg>
