<?xml version="1.0" encoding="UTF-8"?>
<svg width="200px" height="292px" viewBox="0 0 200 292" version="1.1" xmlns="http://www.w3.org/2000/svg" xmlns:xlink="http://www.w3.org/1999/xlink">
    <!-- Generator: sketchtool 64 (101010) - https://sketch.com -->
    <title>6D345862-E795-44E2-90FF-C65284478B6C</title>
    <desc>Created with sketchtool.</desc>
    <g id="Page-1" stroke="none" stroke-width="1" fill="none" fill-rule="evenodd" opacity="0.502227">
        <g id="5.3.1.-Выбор-квартиры" transform="translate(-1117.000000, -174.000000)" fill="#FFFFFF">
            <path d="M1171.63183,174.775315 L1176.06444,175.281937 L1174.94263,183.373223 L1190.97772,184.412756 L1190.97772,182.310818 L1188.29167,181.824678 L1186.8848,180.823722 L1190.49568,178.436382 L1203.41559,179.0304 L1206.41675,182.310818 L1204.24619,182.310818 L1204.24619,185.779341 L1215.71314,186.67549 L1215.71314,179.881827 L1218.79658,178.436382 L1222.47779,178.436382 L1221.91278,186.67549 L1236.98481,189.152616 L1233.58218,186.67549 L1240.56361,181.366874 L1244.73369,181.366874 L1250.87598,188.183751 L1246.20371,190.046716 L1259.71832,191.138823 L1260.26693,184.412756 L1263.30292,182.310818 L1266.89707,182.310818 L1265.95552,191.138823 L1288.03082,196.186958 L1291.34504,196.768004 L1292.20466,189.152616 L1296.41434,190.046716 L1295.91454,195.538317 L1300.54209,196.186958 L1299.26734,201.248066 L1301.56557,205.1761 L1314.80844,208.036949 C1316.8322,208.811449 1317.33814,209.711012 1316.32626,210.735637 C1314.80844,212.272575 1313.83308,213.283431 1313.83308,214.528481 C1313.83308,215.77353 1313.17454,216.36789 1310.84899,216.962592 C1309.29863,217.35906 1305.68535,217.590181 1300.00918,217.655955 L1297.27191,238.48587 C1305.6651,240.507354 1309.59677,242.27621 1309.06694,243.792437 C1308.5371,245.308664 1304.15297,246.192295 1295.91454,246.443331 L1292.8772,266.405432 C1301.08467,268.457186 1305.1884,270.086072 1305.1884,271.29209 C1305.1884,273.101115 1300.01498,275.058305 1292.20466,275.058305 C1290.64473,282.10983 1289.57777,288.237213 1289.00378,293.440453 C1296.39169,294.517425 1300.23779,295.880254 1300.54209,297.52894 C1300.99852,300.00197 1298.45619,302.443592 1292.20466,302.899006 C1289.51177,302.769278 1287.97427,302.769278 1287.59214,302.899006 L1285.284,320.079802 C1293.84765,323.05422 1297.84362,325.244351 1297.27191,326.650195 C1296.41434,328.758962 1291.42561,330.870801 1283.66956,330.221136 C1282.66997,336.374578 1281.78748,342.025038 1281.02208,347.172518 C1288.92549,349.282536 1292.8772,351.224249 1292.8772,352.997656 C1292.8772,355.657768 1290.284,356.139128 1288.54939,356.693204 C1287.39299,357.062588 1284.41482,357.320224 1279.61487,357.466111 L1277.27533,373.579381 C1285.71062,375.625218 1289.92827,377.907183 1289.92827,380.425276 C1289.92827,382.943369 1287.15971,384.497604 1281.62259,385.087981 L1275.01772,385.087981 L1273.27629,399.116723 C1281.71863,401.257239 1285.7212,403.62842 1285.284,406.230268 C1284.62819,410.133039 1275.12969,411.866961 1271.34982,411 C1270.9397,414.754038 1270.39484,419.287527 1269.71525,424.600467 C1278.19128,426.217973 1281.96022,428.347678 1281.02208,430.989582 C1280.08394,433.631486 1275.73907,435.345151 1267.98747,436.130575 L1264.39673,460.74753 L1262.07213,465.385491 L1117.36195,438.502315 L1146.66406,188.860341 L1151.55766,188.860341 L1151.55766,193.299793 L1170.40526,182.966625 L1171.63183,174.775315 Z" id="Combined-Shape"></path>
        </g>
    </g>
</svg>