<?xml version="1.0" encoding="UTF-8"?>
<svg width="267px" height="440px" viewBox="0 0 267 440" version="1.1" xmlns="http://www.w3.org/2000/svg" xmlns:xlink="http://www.w3.org/1999/xlink">
    <!-- Generator: sketchtool 64 (101010) - https://sketch.com -->
    <title>B40DDCB4-E7FC-4DAB-8B8A-8672B29ECC7B</title>
    <desc>Created with sketchtool.</desc>
    <g id="Page-1" stroke="none" stroke-width="1" fill="none" fill-rule="evenodd" fill-opacity="0.499317089">
        <g id="5.3.1.-Выбор-квартиры" transform="translate(-188.000000, -193.000000)" fill="#FFFFFF">
            <path d="M188.905395,248.248404 L228.170267,243.641751 L224.469547,237.563403 L254.356397,234.355934 C258.185379,225.030406 262.423326,218.59684 267.070235,215.055235 C265.772703,213.181734 264.883831,211.463616 264.40362,209.900881 C269.497279,209.557365 271.830879,204.129622 271.40442,193.617652 C273.349117,205.490874 275.150711,208.295786 280.620637,209.098334 C280.445853,211.356645 280.169972,213.342279 279.792993,215.055235 L361.125307,208.369473 L369.550723,213.343347 L366.150441,216.604264 L367.20502,224.954392 L378.835618,223.602976 C378.90834,220.972458 378.586925,219.50981 377.871371,219.215031 C377.155818,218.920252 375.660106,218.920252 373.384237,219.215031 L372.091471,217.435449 L376.285856,213.972431 C379.991141,212.860859 384.445128,212.651164 389.647816,213.343347 C391.17177,214.642845 392.643128,215.872089 394.061889,217.031079 L389.647816,218.537953 L390.129051,222.722444 L397.744343,221.937551 C400.23246,223.555368 401.476519,224.364277 401.476519,224.364277 C401.476519,224.364277 403.078777,224.11051 406.283293,223.602976 L407.695796,224.954392 L427.608089,235.329952 L426.215627,237.563403 L433.453693,241.547961 L430.890993,244.380072 L431.336967,249.828916 L430.406714,249.828916 L432.28853,277.650519 L434.899683,279.51204 L434.899683,280.889789 L432.784479,280.889789 L434.190894,304.342728 L441.36554,309.533831 L439.630352,311.701293 L434.899683,312.096277 L436.798495,338.491169 L439.630352,340.488665 L439.630352,342.12035 L437.335287,342.551356 L439.027095,368.322698 L441.711055,370.50462 L441.711055,371.988155 L439.630352,372.315405 L441.009877,395.798278 L445.164941,399.689259 L444.026161,401.559913 L441.711055,402.071336 L443.09058,426.427384 L445.802191,428.799568 L445.802191,430.530443 L444.026161,431.116196 L445.164941,454.898414 L447.863614,457.076784 L447.863614,458.637946 L445.802191,459.354852 L447.863614,482.226097 L451.842369,486.219819 L450.537934,488.209704 L447.863614,489.859147 L449.95345,516.851462 L451.146265,517.837271 L451.146265,519.596559 L450.537934,520.112295 L451.842369,544.160626 L453.536968,544.920912 L453.536968,546.431337 L452.459325,546.897605 L453.536968,570.882515 L454.69455,587.515876 L446.541271,589.952232 L410.765729,598.399474 L407.695796,596.702677 L342.612891,614.067873 C343.295703,619.949918 340.646008,624.466494 334.663804,627.617601 C325.690499,632.344261 311.185858,633.688024 304.77961,632.065647 C300.508778,630.984063 295.605679,627.643648 290.070311,622.044403 L252.663421,629.747171 L235.280778,573.727884 L226.720505,509.737017 L222.144679,499.709104 L222.144679,496.672138 C223.968628,496.097845 224.880603,495.810698 224.880603,495.810698 C224.880603,495.810698 221.227728,468.26389 213.921979,413.170275 L211.874078,409.09099 L213.302903,408.105706 L201.325236,320.473111 L199.494195,317.513985 L201.325236,316.484101 L192.987556,257.44766 L191.548092,254.566686 L191.548092,252.94555 L188.905395,248.248404 Z" id="Path-11"></path>
        </g>
    </g>
</svg>