<?xml version="1.0" encoding="UTF-8"?>
<svg width="238px" height="110px" viewBox="0 0 238 110" version="1.1" xmlns="http://www.w3.org/2000/svg" xmlns:xlink="http://www.w3.org/1999/xlink">
    <!-- Generator: sketchtool 64 (101010) - https://sketch.com -->
    <title>13BF4A89-5822-4B67-93A1-3E198A5DCD3C</title>
    <desc>Created with sketchtool.</desc>
    <g id="Page-1" stroke="none" stroke-width="1" fill="none" fill-rule="evenodd" fill-opacity="0.503687719">
        <g id="5.3.1.-Выбор-квартиры" transform="translate(-460.000000, -505.000000)" fill="#FFFFFF">
            <path d="M561.276233,515.796141 L468.169696,505.572436 C463.341664,509.354972 460.927648,512.299283 460.927648,514.405371 C460.927648,517.564503 459.381428,521.690948 467.291277,523.035007 C467.171638,528.120008 467.171638,533.331826 467.291277,538.670462 C464.86477,539.46874 463.651516,540.842538 463.651516,542.791856 C463.651516,544.741175 465.387877,546.689468 468.8606,548.636736 L469.314886,563.209113 C465.884094,565.375833 464.950682,567.408216 466.514649,569.306261 C468.078616,571.204306 469.414813,572.376199 470.523241,572.821939 L471.095457,587.788783 L492,590.136655 L492,594.12099 L531.139527,600.079467 L538.473974,594.12099 L618.671702,605.549973 L618.671702,609.733263 L661.112388,614.735731 L667.193202,609.733263 L694.15998,612.997775 L692.905194,535.690352 L697.821052,530.829222 L561.276233,515.796141 Z" id="Path-15"></path>
        </g>
    </g>
</svg>