<?xml version="1.0" encoding="UTF-8"?>
<svg width="169px" height="111px" viewBox="0 0 169 111" version="1.1" xmlns="http://www.w3.org/2000/svg" xmlns:xlink="http://www.w3.org/1999/xlink">
    <!-- Generator: sketchtool 64 (101010) - https://sketch.com -->
    <title>4F312D5D-8082-42E0-B51C-D4DED1E3D2F0</title>
    <desc>Created with sketchtool.</desc>
    <g id="Page-1" stroke="none" stroke-width="1" fill="none" fill-rule="evenodd" fill-opacity="0.503687719">
        <g id="5.3.1.-Выбор-квартиры" transform="translate(-1093.000000, -463.000000)" fill="#FFFFFF">
            <path d="M1254.18617,463.183917 L1261.87831,466.812761 L1259.60783,471.71826 L1249.99402,537.181219 L1148.49639,568.073136 C1138.23967,570.790382 1130.55643,570.374782 1125.44667,566.826335 C1112.53608,568.9884 1101.74753,571.28319 1093.081,573.710705 L1094.627,570.606917 L1093.15248,571.183568 C1093.06278,568.751615 1093.0575,565.701607 1093.13665,562.033545 L1093.15248,561.338541 C1095.80021,560.36956 1097.16068,558.85262 1098.27797,557.94962 C1099.39525,557.04662 1099.19082,551.525248 1099.19082,548.201365 C1099.19082,545.985444 1098.05926,544.227306 1095.79613,542.926952 L1095.79613,542.926952 L1095.79613,538.46128 C1098.05926,537.192346 1099.95753,535.882357 1101.49094,534.531313 C1103.02434,533.180269 1103.02434,531.347562 1101.49094,529.033192 C1101.42831,528.092279 1101.592,526.4948 1101.98203,524.240756 C1102.37205,521.986711 1101.27341,520.159974 1098.68611,518.760544 L1098.757,518.799917 L1098.76505,518.7742 C1098.87018,518.359025 1099.00697,516.360339 1099.17542,512.778144 L1099.19082,512.448128 C1102.49827,511.801502 1104.7426,510.402691 1105.9238,508.251695 L1106.24735,504.244 C1106.33682,503.137611 1105.96253,502.043793 1105.21399,501.22416 L1099,494.419942 L1130.88247,490.974151 L1254.18617,463.183917 Z" id="Combined-Shape"></path>
        </g>
    </g>
</svg>