<?xml version="1.0" encoding="UTF-8"?>
<svg width="460px" height="350px" viewBox="0 0 460 350" version="1.1" xmlns="http://www.w3.org/2000/svg" xmlns:xlink="http://www.w3.org/1999/xlink">
    <!-- Generator: sketchtool 64 (101010) - https://sketch.com -->
    <title>770972C2-EF8E-4B5A-9653-E9F0652BBD9D</title>
    <desc>Created with sketchtool.</desc>
    <g id="Page-1" stroke="none" stroke-width="1" fill="none" fill-rule="evenodd" fill-opacity="0.5">
        <g id="5.3.1.-Выбор-квартиры" transform="translate(-563.000000, -102.000000)" fill="#FFFFFF">
            <path d="M563,187.88816 L603.964773,187.88816 L603.964773,161.765985 L863.828282,151.389936 L889.896364,161.765985 L889.896364,174.060526 L889.896364,151.389936 L915.313816,151.389936 L912.494399,149.766416 L915.313816,147.240634 L927.611366,147.240634 L930.967417,151.389936 L937.574972,151.389936 L938.289525,147.240634 L942.69719,147.240634 C944.433485,133.915734 950.349078,123.566546 960.443969,116.193069 C959.208875,112.666101 957.45105,111.632397 960.443969,110.889767 C963.436888,110.147137 967.251164,107.492339 967.251164,104.034598 C967.251164,100.576858 968.116452,104.3949 968.835487,106.388883 C969.554521,108.382866 972.393401,112.050389 974.513247,112.050389 C974.142515,113.510475 973.407724,114.891369 972.308874,116.193069 C981.003948,125.353025 985.833141,134.989325 986.796454,145.10197 C989.559148,145.865579 992.698877,148.160075 991.129013,148.981374 C989.559148,149.802672 987.735813,153.022917 987.735813,153.022917 C987.735813,153.022917 999.490542,157.914702 1023,167.698271 L1019.13292,171.049359 L1016.02042,183.349109 L1023,185.349741 L1006.31233,424 L889.896364,434.460459 L831.344116,438.464059 L809.463797,443.619082 C788.979538,444.813061 775.153255,445.41005 767.984949,445.41005 C757.232489,445.41005 717.999516,445.41005 709.934732,445.41005 C701.869947,445.41005 651.137136,449.72092 639.889245,449.72092 C628.641354,449.72092 585.634456,460.04571 579.585502,434.460459 C575.552867,417.403625 573.344373,399.023384 572.960022,379.319736 L563,187.88816 Z" id="Path-22"></path>
        </g>
    </g>
</svg>