<?xml version="1.0" encoding="UTF-8"?>
<svg width="415px" height="124px" viewBox="0 0 415 124" version="1.1" xmlns="http://www.w3.org/2000/svg" xmlns:xlink="http://www.w3.org/1999/xlink">
    <!-- Generator: sketchtool 64 (101010) - https://sketch.com -->
    <title>C1110B8F-A51D-4C68-8882-53A082EF9AD8</title>
    <desc>Created with sketchtool.</desc>
    <g id="Page-1" stroke="none" stroke-width="1" fill="none" fill-rule="evenodd" fill-opacity="0.503687719">
        <g id="5.3.1.-Выбор-квартиры" transform="translate(-692.000000, -494.000000)" fill="#FFFFFF">
            <path d="M926.503238,596.363372 L835.66993,606.883409 L832.096307,605.29532 L819.425346,606.883409 L731.036615,617.427073 L694.15998,612.997775 L692.905194,535.690352 L697.821052,530.829222 L728.505123,533.687849 L1062.6705,502.509275 L1099,494.419942 L1105.21399,501.22416 C1105.96253,502.043793 1106.33682,503.137611 1106.24735,504.244 L1106.24735,504.244 L1105.9238,508.251695 C1104.7426,510.402691 1102.49827,511.801502 1099.19082,512.448128 L1099.19082,512.448128 L1099.17542,512.778144 C1099.00697,516.360339 1098.87018,518.359025 1098.76505,518.7742 L1098.76505,518.7742 L1098.757,518.799917 L1098.71019,518.773942 L1098.94845,518.906837 C1101.26173,520.237192 1102.2846,521.937947 1102.01706,524.009103 L1101.98203,524.240756 C1101.592,526.4948 1101.42831,528.092279 1101.49094,529.033192 C1103.02434,531.347562 1103.02434,533.180269 1101.49094,534.531313 C1099.95753,535.882357 1098.05926,537.192346 1095.79613,538.46128 L1095.79613,538.46128 L1095.79613,542.926952 L1096.05224,543.079025 C1098.14463,544.363224 1099.19082,546.070671 1099.19082,548.201365 C1099.19082,551.525248 1099.39525,557.04662 1098.27797,557.94962 C1097.16068,558.85262 1095.80021,560.36956 1093.15248,561.338541 L1093.15248,561.338541 L1093.13665,562.033545 C1093.0575,565.701607 1093.06278,568.751615 1093.15248,571.183568 L1093.15248,571.183568 L1094.627,570.606917 L1093.081,573.710705 L1093.081,573.710705 L926.503238,596.363372 Z" id="Combined-Shape"></path>
        </g>
    </g>
</svg>