<?xml version="1.0" encoding="UTF-8"?>
<svg width="292px" height="86px" viewBox="0 0 292 86" version="1.1" xmlns="http://www.w3.org/2000/svg" xmlns:xlink="http://www.w3.org/1999/xlink">
    <!-- Generator: sketchtool 64 (101010) - https://sketch.com -->
    <title>B1166E04-2826-43D5-989B-C57B08B50587</title>
    <desc>Created with sketchtool.</desc>
    <g id="Page-1" stroke="none" stroke-width="1" fill="none" fill-rule="evenodd" opacity="0.64611">
        <g id="5.3.1.-Выбор-квартиры-_-выбранный-корпус-4" transform="translate(-421.000000, -522.000000)" fill="#F4F1EC">
            <path d="M529.5696,598.0525 L529.8246,598.0915 C530.2746,598.1585 574.9426,604.8785 589.2596,594.2915 C591.5996,592.5615 592.9116,590.5245 593.2706,588.0635 L593.4246,587.0105 L661.9456,573.7045 L666.2696,575.0025 L680.6396,571.8325 L680.4036,570.5515 L712.9086,564.5715 L712.9086,521.9865 L664.3256,529.8775 L660.1996,528.3575 L637.9566,531.9975 L637.9566,533.5665 L599.6776,539.1935 C600.7106,540.2915 601.5886,541.7275 601.4756,543.3745 C601.3196,545.6755 599.3136,547.5895 595.5146,549.0625 C584.6816,553.2635 544.0916,557.3305 527.0046,549.2335 C503.6626,553.8225 475.5846,558.0105 475.3016,558.0525 L474.9286,558.1085 L420.9996,538.6975 L420.9996,584.6155 L477.4126,608.0065 L529.5696,598.0525 Z" id="Fill-15"></path>
        </g>
    </g>
</svg>