<?xml version="1.0" encoding="UTF-8"?>
<svg width="292px" height="59px" viewBox="0 0 292 59" version="1.1" xmlns="http://www.w3.org/2000/svg" xmlns:xlink="http://www.w3.org/1999/xlink">
    <!-- Generator: sketchtool 64 (101010) - https://sketch.com -->
    <title>362F7629-F326-47AF-B791-69931054D466</title>
    <desc>Created with sketchtool.</desc>
    <g id="Page-1" stroke="none" stroke-width="1" fill="none" fill-rule="evenodd" opacity="0.64611">
        <g id="5.3.1.-Выбор-квартиры-_-выбранный-корпус-4" transform="translate(-421.000000, -178.000000)" fill="#F4F1EC">
            <path d="M476.8719,222.6482 L529.3839,225.5842 C535.8439,225.2572 589.0049,222.7742 595.5899,229.0332 C595.8469,229.2772 596.0409,229.5252 596.1879,229.7672 L617.3589,230.3252 L617.4139,228.6202 L638.3909,229.5612 L638.3909,231.9982 L661.8119,233.6142 L666.3009,232.9652 L682.5899,233.6872 L682.5899,234.7722 L712.7199,236.0822 L712.7999,199.2852 L680.8729,196.0272 L680.8729,194.8322 L621.0359,189.0772 L594.5389,187.1222 C594.3209,184.9502 595.1899,183.5382 578.2479,181.2572 C549.5789,178.6512 530.6829,183.5382 530.6829,183.5382 L476.1669,178.0002 L420.9999,189.0772 L420.9999,229.9362 L476.8719,222.6482 Z" id="Fill-21"></path>
        </g>
    </g>
</svg>