<?xml version="1.0" encoding="UTF-8"?>
<svg width="292px" height="52px" viewBox="0 0 292 52" version="1.1" xmlns="http://www.w3.org/2000/svg" xmlns:xlink="http://www.w3.org/1999/xlink">
    <!-- Generator: sketchtool 64 (101010) - https://sketch.com -->
    <title>DAE1A8DF-300D-4CC8-93D2-F4429B548554</title>
    <desc>Created with sketchtool.</desc>
    <g id="Page-1" stroke="none" stroke-width="1" fill="none" fill-rule="evenodd" opacity="0.64611">
        <g id="5.3.1.-Выбор-квартиры-_-выбранный-корпус-4" transform="translate(-421.000000, -225.000000)" fill="#F4F1EC">
            <path d="M529.4559,228.5837 L529.3759,228.5877 L476.9829,225.6587 L420.9999,232.9607 L420.9999,273.3847 L476.8979,269.5657 L476.9719,269.5677 L529.4239,271.1037 C529.4949,271.0997 545.0299,270.6817 560.8179,270.7157 C592.2309,270.7647 594.9679,272.4147 595.9009,273.2897 L617.4009,273.5867 L617.4569,272.6937 L638.3909,273.1857 L638.3909,274.4627 L661.8389,275.3107 L666.3359,274.9697 L682.5899,275.3467 L682.5899,275.9157 L712.7459,276.6027 L712.7209,239.0837 L679.5899,237.6437 L679.5899,236.5567 L666.4499,235.9757 L661.9249,236.6287 L635.3909,234.7977 L635.3909,232.4297 L620.3139,231.7527 L620.2599,233.4027 L593.6079,232.7007 L593.6079,231.2397 C591.9829,228.0997 563.1969,226.8697 529.4559,228.5837" id="Fill-12"></path>
        </g>
    </g>
</svg>