<?xml version="1.0" encoding="UTF-8"?>
<svg width="292px" height="60px" viewBox="0 0 292 60" version="1.1" xmlns="http://www.w3.org/2000/svg" xmlns:xlink="http://www.w3.org/1999/xlink">
    <!-- Generator: sketchtool 64 (101010) - https://sketch.com -->
    <title>2C901451-FEB6-42BC-A6B0-08A2DD855F28</title>
    <desc>Created with sketchtool.</desc>
    <g id="Page-1" stroke="none" stroke-width="1" fill="none" fill-rule="evenodd" opacity="0.64611">
        <g id="5.3.1.-Выбор-квартиры-_-выбранный-корпус-4" transform="translate(-421.000000, -352.000000)" fill="#F4F1EC">
            <path d="M476.3797,411.6272 L530.0307,408.5332 L540.8667,404.2652 L541.1987,404.2852 C541.6007,404.3082 581.5757,406.6572 593.1927,402.2622 L593.4487,402.1652 L618.9077,402.1652 L619.8507,403.4212 L679.6157,399.7892 L679.6157,398.0422 L712.8277,397.3332 L712.8027,360.2962 L679.5897,361.0622 L679.5897,351.9902 L666.4107,352.3002 L620.3567,352.8742 L620.3017,363.3082 L595.9057,363.6482 C594.9727,364.5292 592.3057,366.2032 560.8017,366.2532 C545.0327,366.2782 529.4947,365.8652 529.3387,365.8602 L476.8977,367.4162 L476.8237,367.4112 L420.9997,363.5522 L420.9997,403.1602 L476.3797,411.6272 Z" id="Fill-4"></path>
        </g>
    </g>
</svg>