<?xml version="1.0" encoding="UTF-8"?>
<svg width="292px" height="76px" viewBox="0 0 292 76" version="1.1" xmlns="http://www.w3.org/2000/svg" xmlns:xlink="http://www.w3.org/1999/xlink">
    <!-- Generator: sketchtool 64 (101010) - https://sketch.com -->
    <title>78C3E764-481D-46BD-9654-4ED888E2520A</title>
    <desc>Created with sketchtool.</desc>
    <g id="Page-1" stroke="none" stroke-width="1" fill="none" fill-rule="evenodd" opacity="0.64611">
        <g id="5.3.1.-Выбор-квартиры-_-выбранный-корпус-4" transform="translate(-421.000000, -480.000000)" fill="#F4F1EC">
            <path d="M620.5721,492.03 C620.4381,492.043 612.9191,492.691 594.6251,494.558 C589.1941,502.694 552.4711,500.476 544.2791,499.875 L534.7681,502.24 L477.3341,509.009 L477.0341,508.918 L421.0001,491.864 L421.0001,535.509 L475.2331,555.03 C478.6651,554.513 505.0071,550.518 526.9171,546.192 L527.4201,546.093 L527.8791,546.322 C543.7081,554.239 584.1451,550.255 594.4301,546.265 C596.9361,545.294 598.4131,544.167 598.4831,543.174 C598.5771,541.825 596.3631,540.134 595.2751,539.527 L591.4231,537.376 L634.9561,530.974 L634.9561,529.449 L660.4961,525.269 L664.6231,526.79 L712.9091,518.947 L712.9091,516.388 L712.8851,480.422 L680.7331,484.428 L620.5721,492.03 Z" id="Fill-9"></path>
        </g>
    </g>
</svg>