<?xml version="1.0" encoding="UTF-8"?>
<svg width="292px" height="94px" viewBox="0 0 292 94" version="1.1" xmlns="http://www.w3.org/2000/svg" xmlns:xlink="http://www.w3.org/1999/xlink">
    <!-- Generator: sketchtool 64 (101010) - https://sketch.com -->
    <title>27E84DE8-0868-4B97-B29E-75645E7BB151</title>
    <desc>Created with sketchtool.</desc>
    <g id="Page-1" stroke="none" stroke-width="1" fill="none" fill-rule="evenodd" opacity="0.64611">
        <g id="5.3.1.-Выбор-квартиры-_-выбранный-корпус-4" transform="translate(-421.000000, -607.000000)" fill="#F4F1EC">
            <path d="M682.4871,615.2937 L682.4871,618.1757 L665.2651,621.6667 L660.3851,619.3897 L619.8261,627.9737 C619.6331,628.0107 603.9741,630.9867 595.5161,632.9297 C595.1811,636.3907 593.4331,642.8977 576.0891,645.5807 C560.2181,648.0377 537.2231,644.5867 530.6631,643.4917 L530.6631,646.6057 L477.2691,658.4947 L421.0001,629.7437 L421.0001,653.7097 L445.6521,685.7997 L477.2531,700.9487 C477.2531,700.9487 506.9001,693.9437 526.2851,687.9177 C543.2261,699.1567 569.9411,695.2477 581.6691,692.3147 C593.3981,689.3837 594.2121,682.8677 594.2121,682.8677 L593.7231,672.4417 L616.0401,666.5777 L621.0901,669.3477 L637.5421,665.2747 L637.5421,660.8767 L659.0451,655.0127 L660.9991,655.9897 L665.8861,657.7817 L680.3841,653.5467 L680.5471,648.0077 L712.9091,639.3197 L712.9091,607.6097 L682.4871,615.2937 Z" id="Fill-24"></path>
        </g>
    </g>
</svg>