<?xml version="1.0" encoding="UTF-8"?>
<svg width="292px" height="90px" viewBox="0 0 292 90" version="1.1" xmlns="http://www.w3.org/2000/svg" xmlns:xlink="http://www.w3.org/1999/xlink">
    <!-- Generator: sketchtool 64 (101010) - https://sketch.com -->
    <title>9D60E5D1-FF52-4F47-9349-BEE006BA72E3</title>
    <desc>Created with sketchtool.</desc>
    <g id="Page-1" stroke="none" stroke-width="1" fill="none" fill-rule="evenodd" opacity="0.64611">
        <g id="5.3.1.-Выбор-квартиры-_-выбранный-корпус-4" transform="translate(-421.000000, -566.000000)" fill="#F4F1EC">
            <path d="M681.2425,572.6179 L681.6955,574.6719 L666.1545,578.0999 L661.7915,576.7909 L596.0345,589.5589 C595.3625,592.3489 593.6875,594.7489 591.0425,596.7049 C576.1545,607.7139 533.7235,601.7079 529.6265,601.0959 L477.0935,611.1219 L420.9995,587.8639 L420.9995,626.3749 L477.6715,655.3309 L527.6625,644.1989 L527.6625,639.9099 L529.4325,640.2339 C529.7155,640.2859 557.8475,645.3699 575.6295,642.6159 C592.0315,640.0779 592.4055,634.5799 592.5845,631.9369 L592.6925,630.5119 L593.7585,630.2589 C601.9495,628.3179 619.0635,625.0639 619.2355,625.0319 L660.7455,616.2469 L665.6385,618.5299 L679.4875,615.7219 L679.4875,612.9579 L712.9095,604.5159 L712.9095,566.7929 L681.2425,572.6179 Z" id="Fill-18"></path>
        </g>
    </g>
</svg>