<?xml version="1.0" encoding="UTF-8"?>
<svg width="109px" height="60px" viewBox="0 0 109 60" version="1.1" xmlns="http://www.w3.org/2000/svg" xmlns:xlink="http://www.w3.org/1999/xlink">
    <!-- Generator: sketchtool 64 (101010) - https://sketch.com -->
    <title>1EC64C11-422D-413C-9555-A4BB8A5BE7F1</title>
    <desc>Created with sketchtool.</desc>
    <defs>
        <linearGradient x1="127.828798%" y1="3.27480984%" x2="-146.745607%" y2="141.973607%" id="linearGradient-1">
            <stop stop-color="#D9A268" offset="6.23%"></stop>
            <stop stop-color="#B08455" offset="100%"></stop>
        </linearGradient>
        <linearGradient x1="181.617059%" y1="-49.8285471%" x2="-97.5810293%" y2="136.343616%" id="linearGradient-2">
            <stop stop-color="#D9A268" offset="6.23%"></stop>
            <stop stop-color="#B08455" offset="100%"></stop>
        </linearGradient>
        <linearGradient x1="121.505437%" y1="11.760436%" x2="-157.692652%" y2="197.932735%" id="linearGradient-3">
            <stop stop-color="#D9A268" offset="6.23%"></stop>
            <stop stop-color="#B08455" offset="100%"></stop>
        </linearGradient>
        <linearGradient x1="2217.03322%" y1="-1087.73393%" x2="-870.008741%" y2="535.622555%" id="linearGradient-4">
            <stop stop-color="#D9A268" offset="6.23%"></stop>
            <stop stop-color="#B08455" offset="100%"></stop>
        </linearGradient>
        <linearGradient x1="184.629621%" y1="-60.1880208%" x2="-78.1932631%" y2="154.923283%" id="linearGradient-5">
            <stop stop-color="#D9A268" offset="6.23%"></stop>
            <stop stop-color="#B08455" offset="100%"></stop>
        </linearGradient>
        <linearGradient x1="97.4116645%" y1="33.101965%" x2="-103.902135%" y2="120.792618%" id="linearGradient-6">
            <stop stop-color="#D9A268" offset="6.23%"></stop>
            <stop stop-color="#B08455" offset="100%"></stop>
        </linearGradient>
        <linearGradient x1="159.177956%" y1="25.3483387%" x2="-186.512725%" y2="109.815424%" id="linearGradient-7">
            <stop stop-color="#D9A268" offset="6.23%"></stop>
            <stop stop-color="#B08455" offset="100%"></stop>
        </linearGradient>
        <linearGradient x1="217.210341%" y1="18.3161942%" x2="-53.6992943%" y2="69.540476%" id="linearGradient-8">
            <stop stop-color="#D9A268" offset="6.23%"></stop>
            <stop stop-color="#B08455" offset="100%"></stop>
        </linearGradient>
        <linearGradient x1="97.7213955%" y1="35.5068628%" x2="25.9238839%" y2="67.8866385%" id="linearGradient-9">
            <stop stop-color="#D9A268" offset="6.23%"></stop>
            <stop stop-color="#B08455" offset="100%"></stop>
        </linearGradient>
        <linearGradient x1="286.234692%" y1="-56.341089%" x2="84.9477175%" y2="31.3540893%" id="linearGradient-10">
            <stop stop-color="#D9A268" offset="6.23%"></stop>
            <stop stop-color="#B08455" offset="100%"></stop>
        </linearGradient>
        <linearGradient x1="431.224941%" y1="-43.1900058%" x2="85.53426%" y2="41.2798245%" id="linearGradient-11">
            <stop stop-color="#D9A268" offset="6.23%"></stop>
            <stop stop-color="#B08455" offset="100%"></stop>
        </linearGradient>
        <linearGradient x1="283.905936%" y1="5.05002953%" x2="15.1406393%" y2="55.9141119%" id="linearGradient-12">
            <stop stop-color="#D9A268" offset="6.23%"></stop>
            <stop stop-color="#B08455" offset="100%"></stop>
        </linearGradient>
    </defs>
    <g id="Page-1" stroke="none" stroke-width="1" fill="none" fill-rule="evenodd">
        <g id="5.3.1.-Выбор-квартиры-_-выбранный-этаж-" transform="translate(-666.000000, -13.000000)">
            <g id="header-menu/2">
                <g id="logo-copy-4" transform="translate(666.000000, 13.000000)">
                    <g id="Group">
                        <path d="M54.1787052,1.96281407 L54.5720661,1.5678392 L54.9684298,1.96582915 L54.5720661,2.36080402 L54.1787052,1.96281407 Z M54.3678788,9.16884422 L54.5780716,8.95778894 L54.7882645,9.1718593 L54.5780716,9.38291457 L54.3678788,9.16884422 Z M56.0734435,9.25628141 L56.2956474,9.05427136 L56.496832,9.27738693 L56.2746281,9.47939698 L56.0734435,9.25628141 Z M57.7790083,9.36482412 L58.0102204,9.17487437 L58.1993939,9.41005025 L57.9681818,9.6 L57.7790083,9.36482412 Z M59.484573,9.61809045 L59.7277961,9.44321608 L59.9049587,9.68743719 L59.6617355,9.86231156 L59.484573,9.61809045 Z M52.6653168,9.26532663 L52.8665014,9.04221106 L53.0887052,9.24422111 L52.8875207,9.46733668 L52.6653168,9.26532663 Z M50.9597521,9.43417085 L51.1489256,9.20201005 L51.3801377,9.3919598 L51.1909642,9.6241206 L50.9597521,9.43417085 Z M49.2571901,9.69045226 L49.4343526,9.44924623 L49.6775758,9.62713568 L49.5004132,9.86834171 L49.2571901,9.69045226 Z M49.4643802,9.22914573 L49.4643802,9.22914573 C49.7015978,9.22914573 49.8907713,9.41909548 49.8907713,9.65728643 C49.8907713,9.89547739 49.7015978,10.0854271 49.4643802,10.0884422 C49.2301653,10.0884422 49.037989,9.89547739 49.037989,9.66030151 C49.0409917,9.42211055 49.2301653,9.22914573 49.4643802,9.22914573 Z M51.1699449,8.98190955 L51.1699449,8.98190955 C51.4071625,8.98190955 51.5963361,9.17487437 51.5963361,9.41005025 C51.5963361,9.64824121 51.4071625,9.83819095 51.1699449,9.84120603 C50.93573,9.84120603 50.7435537,9.64824121 50.7435537,9.41306533 C50.7435537,9.17788945 50.93573,8.98190955 51.1699449,8.98190955 Z M52.8755096,8.8281407 L52.8755096,8.8281407 C53.1127273,8.8281407 53.3019008,9.02110553 53.3019008,9.25628141 C53.3019008,9.49145729 53.1097245,9.68442211 52.8755096,9.68442211 C52.6412948,9.68442211 52.4491185,9.49447236 52.4491185,9.25628141 C52.4491185,9.02110553 52.6412948,8.8281407 52.8755096,8.8281407 Z M54.5810744,8.74070352 L54.5810744,8.74070352 C54.818292,8.74070352 55.0074656,8.93065327 55.0074656,9.16884422 C55.0074656,9.40703518 54.818292,9.59698492 54.5810744,9.6 C54.3468595,9.6 54.1546832,9.40703518 54.1546832,9.1718593 C54.1546832,8.93065327 54.3438567,8.74070352 54.5810744,8.74070352 Z M56.2836364,8.83718593 L56.2836364,8.83718593 C56.520854,8.83718593 56.7100275,9.03015075 56.7100275,9.26532663 C56.7100275,9.50050251 56.520854,9.69346734 56.2836364,9.69346734 C56.0494215,9.69346734 55.8572452,9.50351759 55.8572452,9.26532663 C55.8572452,9.03015075 56.0494215,8.84020101 56.2836364,8.83718593 Z M57.9922039,8.96080402 L57.9922039,8.96080402 C58.2264187,8.96080402 58.418595,9.15075377 58.418595,9.38592965 C58.418595,9.6241206 58.2294215,9.81407035 57.9922039,9.81708543 C57.7549862,9.81708543 57.5658127,9.6241206 57.5658127,9.38894472 C57.5628099,9.15075377 57.7549862,8.96080402 57.9922039,8.96080402 Z M59.6947658,9.22311558 L59.6947658,9.22311558 C59.9289807,9.22311558 60.121157,9.41306533 60.121157,9.65125628 C60.121157,9.88944724 59.9289807,10.079397 59.6947658,10.079397 C59.460551,10.079397 59.2683747,9.88944724 59.2683747,9.65125628 C59.2683747,9.4160804 59.460551,9.22613065 59.6947658,9.22311558 Z M50.7255372,6.10251256 L50.7255372,6.10251256 L50.1820386,6.64522613 L49.6415427,7.19095477 L50.1820386,7.73366834 L50.5573829,8.11055276 L49.3502755,8.11055276 C48.7737466,8.11055276 48.2963085,7.24522613 48.1101377,6.93165829 L47.4675482,6.93165829 L48.7857576,10.5075377 C50.6234435,10.1095477 52.5632231,9.89547739 54.5720661,9.89246231 C56.5809091,9.88944724 58.5206887,10.1005025 60.3583747,10.4924623 L61.6735813,6.91356784 L61.0309917,6.91356784 C60.8478237,7.22713568 60.3673829,8.09547739 59.790854,8.09849246 L58.5837466,8.10150754 L58.9590909,7.72462312 L59.4995868,7.17889447 L58.9590909,6.6361809 L58.418595,6.09346734 L57.8750964,6.6361809 L57.3346006,7.18190955 L57.8750964,7.72462312 L58.247438,8.10150754 L56.0884573,8.10452261 C55.6410468,8.10452261 55.271708,7.61909548 55.259697,6.93467337 L54.9504132,6.93467337 L54.6381267,6.93467337 L53.8814325,6.93467337 C53.8664187,7.61909548 53.5000826,8.10753769 53.0526722,8.10753769 L50.8936915,8.11055276 L51.2660331,7.73366834 L51.8095317,7.19095477 L51.2660331,6.64824121 L50.7255372,6.10251256 Z M54.5750689,1.34472362 L54.5750689,1.34472362 C54.9143802,1.34472362 55.1906336,1.61909548 55.1906336,1.96281407 C55.1906336,2.30351759 54.9143802,2.58090452 54.5750689,2.58090452 C54.2357576,2.58090452 53.9595041,2.30653266 53.9595041,1.96281407 C53.9595041,1.62211055 54.2357576,1.34472362 54.5750689,1.34472362 Z M54.5750689,0.00603015075 C55.1065565,0.645226131 55.442865,1.18492462 55.614022,1.73969849 C55.7851791,2.30351759 55.3317631,3.06633166 55.1546006,3.70251256 C54.965427,4.37487437 54.9684298,4.92361809 54.9323967,5.33366834 C55.0645179,4.89346734 55.406832,3.52462312 56.3286777,3.04522613 C57.1093939,2.63819095 57.8901102,3.08743719 58.1633609,3.87738693 C58.4396143,4.68241206 58.1993939,5.75577889 56.6469697,5.93366834 C57.5267769,4.65527638 56.9382369,4.22110553 56.7430579,4.18190955 C56.3196694,4.09748744 55.6980992,4.53467337 55.2897245,5.73165829 L54.5780716,5.73165829 L53.863416,5.73165829 C53.4520386,4.53768844 52.8334711,4.10351759 52.4100826,4.1879397 C52.2119008,4.22713568 51.6233609,4.66432161 52.5061708,5.93969849 C50.9537466,5.7678392 50.7135262,4.69447236 50.9897796,3.88944724 C51.2600275,3.09949749 52.0437466,2.64723618 52.8244628,3.05427136 C53.7463085,3.53065327 54.0886226,4.89949749 54.2207438,5.33969849 C54.1847107,4.92964824 54.1877135,4.38090452 53.9985399,3.70854271 C53.8213774,3.07537688 53.3709642,2.30954774 53.5391185,1.74874372 C53.70427,1.1879397 54.0435813,0.645226131 54.5750689,0.00603015075 Z M48.9178788,10.8753769 L48.9178788,10.8753769 C50.776584,10.4864322 52.6743251,10.2934673 54.5750689,10.2904523 C56.4728099,10.2874372 58.370551,10.4743719 60.2292562,10.8603015 L60.0430854,11.3577889 C58.2384298,10.9929648 56.4127548,10.7849246 54.5750689,10.7879397 C52.7343802,10.7909548 50.9026997,10.9929648 49.1010468,11.3638191 L48.9178788,10.8753769 Z M53.70427,5.96080402 L53.70427,5.96080402 L55.4728926,5.95778894 C55.6710744,5.95778894 55.8302204,6.11758794 55.8302204,6.31658291 C55.8302204,6.51557789 55.6680716,6.67839196 55.4728926,6.67839196 L53.70427,6.68140704 C53.5060882,6.68140704 53.3439394,6.52160804 53.3439394,6.32261307 C53.3469421,6.12060302 53.5060882,5.96080402 53.70427,5.96080402 Z M48.278292,6.67839196 L48.278292,6.67839196 L47.3834711,6.67839196 L47.1312397,5.97286432 L47.9750138,5.97286432 C48.2873003,5.97286432 48.5065014,6.23819095 48.5125069,6.44623116 C48.5155096,6.56984925 48.425427,6.67839196 48.278292,6.67839196 Z M60.8718457,6.66030151 L60.8718457,6.66030151 L61.7666667,6.66030151 L62.0188981,5.95477387 L61.175124,5.95477387 C60.8628375,5.95477387 60.6436364,6.22311558 60.6376309,6.4281407 C60.6316253,6.55175879 60.7247107,6.66030151 60.8718457,6.66030151 Z M44.9182094,0.0271356784 L44.9182094,0.0271356784 C45.5908264,0.473366834 46.6147658,1.48944724 46.8399725,2.0201005 C46.9871074,2.3638191 46.8730028,3.0361809 46.9240496,3.69346734 C46.9811019,4.38994975 47.1312397,4.89346734 47.2393388,5.29145729 C47.152259,3.98592965 47.4315152,3.00904523 48.1731956,2.89145729 C49.2932231,2.71658291 50.7165289,4.31457286 50.2270799,5.42713568 C50.0739394,5.7678392 49.7046006,5.96984925 49.1190634,5.96080402 C49.5844904,4.66432161 48.7977686,4.22110553 48.6025895,4.18190955 C48.4044077,4.14271357 47.6867493,4.37487437 47.8488981,5.71356784 L47.041157,5.78592965 L44.9182094,0.0271356784 Z M54.6291185,12.3407035 C53.4730579,12.3407035 52.7253719,12.401005 51.8095317,12.5336683 L50.788595,11.5386935 C52.0227273,11.279397 52.9806061,11.1949749 54.6411295,11.1859296 C55.737135,11.1829146 57.0913774,11.3457286 58.3525344,11.5447236 L57.4487052,12.5366834 C56.5268595,12.4070352 55.7071074,12.3407035 54.6291185,12.3407035 Z M64.2289256,0 L64.2289256,0 C63.5563085,0.449246231 62.5323691,1.46532663 62.3071625,1.99899497 C62.1600275,2.34271357 62.2741322,3.01507538 62.2230854,3.67236181 C62.1660331,4.36884422 62.0158953,4.87537688 61.9077961,5.27035176 C61.9918733,3.96482412 61.7156198,2.9879397 60.9739394,2.87336683 C59.8539118,2.70150754 58.4306061,4.30552764 58.9230579,5.41507538 C59.0761983,5.75577889 59.4425344,5.95778894 60.0310744,5.94572864 C59.5656474,4.65226131 60.3523691,4.20603015 60.5475482,4.16683417 C60.74573,4.12763819 61.4633884,4.35678392 61.3012397,5.69547739 L62.1119835,5.7678392 L64.2289256,0 Z" id="Shape" fill="url(#linearGradient-1)"></path>
                        <path d="M39.8855923,10.3115578 C39.7624793,10.441206 39.5673003,10.4683417 39.411157,10.5678392 C39.4982369,10.839196 39.8585675,11.1467337 40.0507438,11.2643216 C40.3870523,11.4723618 40.4981543,11.5507538 40.9035262,11.2974874 C40.7323691,11.0623116 40.5882369,11.0231156 40.4350964,10.6582915 C40.3480165,10.5045226 40.3630303,10.4532663 40.2999725,10.3236181 C40.1288154,9.80502513 39.8465565,9.16582915 40.03573,8.55979899 C40.047741,8.78592965 40.0147107,8.96984925 40.0447383,9.2201005 C40.1258127,9.92261307 40.6813223,11.1768844 41.1317355,11.1859296 C40.7984298,10.7969849 40.6092562,10.7306533 40.3480165,10.1125628 C39.9756749,9.22914573 40.1288154,8.57487437 40.2249036,7.82713568 C40.2669421,7.49547739 40.3900551,7.10954774 40.2849587,6.69648241 C40.170854,7.04321608 40.194876,7.00100503 39.7925069,7.10050251 C40.0447383,7.48944724 40.1348209,7.74271357 40.0597521,8.11055276 C40.0057025,7.71859296 40.0717631,7.52261307 39.7324518,7.14572864 C39.4321763,7.29346734 38.615427,8.32160804 38.5703857,8.83115578 C38.5403581,9.17788945 38.6874931,9.63015075 39.0177961,9.85929648 C39.252011,10.0341709 39.6333609,9.81105528 39.8855923,10.3115578 M41.3659504,11.0864322 C41.1887879,10.9386935 41.0626722,10.9175879 40.9065289,10.6432161 C40.7864187,10.4351759 40.7293664,10.1969849 40.7113499,9.98894472 C40.612259,8.87336683 41.1587603,8.15577889 41.4650413,7.29346734 C41.5461157,7.06733668 41.5341047,6.90753769 41.591157,6.72060302 C41.6301928,6.80502513 41.567135,6.9678392 41.555124,7.09145729 C41.7923416,6.72361809 42.2637741,5.39396985 41.4410193,5.07135678 C41.5851515,5.27638191 41.4950689,5.4120603 41.3809642,5.56582915 C41.6301928,5.77386935 41.6361983,5.98190955 41.6151791,6.27738693 C41.5311019,5.96683417 41.5701377,5.48442211 41.113719,5.74371859 C39.6483747,6.56984925 40.489146,5.89145729 40.3780441,7.48944724 C40.305978,8.18894472 39.8585675,9.45226131 40.7323691,10.640201 C40.9575758,10.9417085 41.1497521,11.1708543 41.3659504,11.0864322 Z M40.1498347,21.319598 C39.6964187,21.0512563 39.24,21.2623116 38.3992287,20.3487437 C38.0088705,19.9236181 37.4713774,19.1065327 37.2521763,18.8924623 C35.6487052,17.3306533 36.4023967,15.8773869 37.5314325,14.7045226 C37.5734711,14.6562814 37.6125069,14.6110553 37.6545455,14.5628141 C37.6875758,14.5085427 37.6815702,14.5145729 37.6935813,14.4753769 C37.6815702,14.4753769 37.6575482,14.481407 37.660551,14.478392 C37.6275207,14.4874372 37.5944904,14.4934673 37.5614601,14.5025126 C37.3632782,14.5899497 36.8828375,15.1356784 36.753719,15.2894472 C35.8078512,16.4231156 35.369449,17.8462312 36.6576309,19.2723618 C36.912865,19.5557789 36.8287879,19.5346734 37.1170523,19.7969849 C37.660551,20.2914573 37.7115978,20.960804 39.0628375,21.198995 C39.3120661,21.2442211 39.9036088,21.3376884 40.1498347,21.319598 Z M41.6542149,11.4904523 C42.1706887,11.4331658 42.2007163,11.3276382 42.9363912,11.3276382 C44.8641598,11.3276382 45.804022,12.361809 46.4796419,11.8944724 C46.269449,11.7407035 45.2244904,11.3155779 44.9392287,11.2130653 C44.7980992,11.1859296 44.530854,11.080402 44.3807163,11.041206 C42.9093664,10.6643216 41.5250964,10.998995 40.3089807,11.9276382 C40.7593939,11.7829146 41.2068044,11.638191 41.6542149,11.4904523 Z M41.2758678,15.159799 C41.0026171,15.3135678 41.0506612,15.3708543 41.1707713,15.2894472 C42.4529477,14.6562814 43.2006336,14.3427136 44.7170248,14.0261307 C45.6899174,13.7909548 46.1313223,13.8060302 47.053168,13.121608 C46.6057576,12.8562814 46.845978,12.919598 45.8730854,13.2060302 C44.6960055,13.7457286 42.9784298,14.0592965 41.8584022,14.7829146 C41.6662259,14.9095477 41.4710468,15.0331658 41.2758678,15.159799 Z M38.0419008,8.33668342 C38.0479063,8.8281407 38.0539118,9.27437186 38.3842149,9.7718593 C38.5163361,9.97085427 38.5853994,9.94673367 38.7895868,9.89849246 C38.3271625,9.33768844 38.2731129,8.87638191 38.5733884,8.31557789 C38.6934986,8.08944724 38.7655647,8.05628141 38.5433609,7.79396985 C38.2460882,7.82713568 38.1890358,8.0201005 38.0629201,8.22512563 C38.1049587,7.9959799 38.2100551,7.90552764 38.456281,7.75477387 C38.1890358,7.67638191 37.9548209,7.89045226 37.7206061,7.69447236 C37.4323416,7.45929648 37.5164187,7.05226131 37.1380716,6.95879397 C37.7266116,7.68241206 37.6455372,8.39698492 38.0689256,9.27738693 C38.0899449,9.19296482 38.0839394,9.25929648 38.0809366,9.15979899 C38.0599174,9.0361809 38.0388981,8.91256281 38.014876,8.7919598 C38.002865,8.61105528 37.9998623,8.47537688 38.0419008,8.33668342 Z M48.9749311,12.5788945 C48.9869421,12.5788945 48.9749311,12.5035176 48.9749311,12.4160804 C48.9779339,12.3226131 48.9989532,12.2231156 48.9689256,12.1929648 C48.1401653,12.1236181 47.8158678,13.0522613 47.2153168,13.4351759 C46.9750964,13.5979899 46.734876,13.760804 46.4976584,13.9266332 C46.8639945,13.9929648 47.4675482,13.6552764 47.8549036,13.4291457 C48.4434435,13.0854271 48.7887603,12.6723618 48.9749311,12.5788945 Z M44.7080165,12.0271357 C45.0173003,12.0301508 46.0142149,12.198995 46.2364187,12.1236181 C45.8640771,12.1718593 44.8341322,11.7105528 44.0263912,11.5447236 C43.6570523,11.4693467 43.2726997,11.4211055 42.8583196,11.4180905 C42.5820661,11.4150754 41.8674105,11.4542714 41.6662259,11.6261307 C42.227741,11.6170854 43.8672452,11.8492462 44.5668871,11.9819095 C44.6149311,11.9939698 44.6629752,12.0120603 44.7080165,12.0271357 Z M37.4893939,14.3306533 C36.8017631,14.7256281 35.9609917,15.4130653 35.0601653,15.2713568 C34.7688981,15.2261307 34.6998347,15.1477387 34.4055647,14.8854271 C34.4085675,15.2713568 34.8739945,15.4974874 35.0721763,15.5728643 C35.3394215,15.6753769 35.5946556,15.7507538 35.957989,15.6693467 C36.582562,15.5276382 36.5225069,15.2472362 37.1140496,14.7135678 C37.1891185,14.6442211 37.2551791,14.5959799 37.3272452,14.5386935 C37.4593664,14.439196 37.4683747,14.4301508 37.4893939,14.3306533 Z M44.1825344,14.2613065 C43.4198347,14.4663317 41.8283747,15.2020101 41.3449311,15.8231156 C41.3179063,15.8743719 41.2908815,15.9286432 41.2638567,15.9798995 C41.5311019,15.8050251 41.6662259,15.639196 41.9935262,15.4613065 C42.2217355,15.3376884 42.7952617,15.081407 43.3207438,14.8582915 C43.2757025,14.879397 43.2336639,14.9005025 43.1916253,14.9246231 C41.762314,15.7809045 41.6121763,16.0673367 40.7473829,17.4512563 C42.693168,15.358794 42.8853444,15.5065327 44.0353994,15.0090452 C44.9302204,14.6201005 45.7589807,14.3849246 46.221405,14.041206 C45.9481543,14.0110553 45.5457851,14.1437186 45.2274931,14.2190955 C45.020303,14.2944724 44.7950964,14.3577889 44.5578788,14.4331658 C44.2966391,14.5145729 43.9453168,14.6170854 43.6330303,14.7346734 C43.9273003,14.6140704 44.1765289,14.5175879 44.2996419,14.481407 C45.3476033,14.1648241 46.3355096,13.9145729 47.2153168,13.1155779 C46.527686,13.5135678 46.7979339,13.5376884 45.7109366,13.8934673 C45.1704408,14.0653266 44.6990083,14.1226131 44.1825344,14.2613065 Z M38.9607438,20.5447236 C38.7565565,19.9447236 38.4833058,19.2482412 38.014876,18.9075377 C37.5584573,18.5758794 37.342259,18.6723618 36.7266942,18.1115578 C36.9969421,18.6663317 37.4984022,18.9467337 37.8617355,19.2874372 C38.0479063,19.4623116 38.8646556,20.3819095 38.9607438,20.5447236 Z M46.5006612,12.6844221 C46.3174931,12.4462312 45.9301377,12.5276382 45.6628926,12.5306533 C44.873168,12.5457286 43.5669697,12.9286432 42.8883471,13.2934673 C43.0715152,13.3025126 44.7920937,12.8170854 45.6418733,12.7386935 C45.9121212,12.7145729 46.269449,12.7266332 46.5006612,12.6844221 Z M38.2671074,9.93467337 C38.285124,9.80201005 38.0208815,9.3919598 37.8947658,9.06030151 C37.7866667,8.7798995 37.6935813,8.49648241 37.6185124,8.2160804 C37.5074105,7.79698492 37.3332507,6.78994975 36.7477135,6.91356784 C36.8167769,7.01005025 36.8798347,7.10050251 36.9368871,7.1879397 C36.8047658,7.01909548 36.6636364,6.90150754 36.5435262,6.91055276 C36.4624518,6.91658291 36.1861983,6.98592965 36.0841047,7.0160804 C35.9760055,7.05527638 35.8679063,7.09447236 35.7598072,7.13366834 C36.2162259,7.40201005 36.105124,7.22110553 36.5134986,7.80301508 C36.9669146,8.47537688 37.1801102,9.32864322 37.6995868,9.98291457 C37.7146006,10.0221106 38.2040496,9.9798995 38.15,9.93467337 C37.7926722,9.47336683 37.6485399,9.14170854 37.4773829,8.52663317 C37.4083196,8.3638191 37.2281543,7.93869347 37.1440771,7.80301508 C37.0269697,7.58894472 36.8588154,7.41105528 36.7266942,7.20603015 C37.0690083,7.55276382 37.1650964,7.64924623 37.3842975,8.1798995 C37.3933058,8.05929648 37.3062259,7.80904523 37.1771074,7.56180905 C37.6635537,8.39095477 37.4953994,8.60201005 37.7896694,9.2080402 C37.9007713,9.44623116 38.0539118,9.86532663 38.2671074,9.93467337 Z M35.2042975,12.081407 C34.9820937,12.1025126 34.8709917,12.1296482 34.8169421,12.4522613 C34.8139394,12.4763819 34.8109366,12.5005025 34.8049311,12.5276382 C34.9430579,12.9919598 35.6967493,13.2572864 35.9189532,13.2844221 C35.7628099,13.0974874 35.5916529,12.9798995 35.5105785,12.7055276 C35.4174931,12.3829146 35.4745455,12.3527638 35.2042975,12.081407 Z M39.7534711,12.1748744 C39.9186226,12.1055276 39.9516529,12.0512563 40.047741,11.9005025 C38.9997796,11.5507538 39.4381818,11.5778894 38.8946832,11.3005025 C38.8316253,11.4361809 38.8196143,11.641206 38.8286226,11.8341709 C39.0388154,12.0603015 39.6904132,12.2110553 39.7534711,12.1748744 Z M49.5904959,13.3236181 C50.2360882,13.2904523 50.004876,12.8020101 50.6654821,12.7085427 C49.821708,12.4763819 49.7346281,13.0492462 49.2752066,12.8653266 C49.2181543,12.841206 49.1611019,12.8140704 49.1010468,12.7899497 C49.2421763,13.0160804 49.2812121,13.1969849 49.4523691,13.2964824 C49.503416,13.3296482 49.5304408,13.3266332 49.5904959,13.3236181 Z M35.333416,15.1899497 C35.8198623,14.9969849 35.810854,14.6442211 36.3873829,14.3668342 C35.7748209,14.1437186 35.4174931,15.319598 34.4476033,14.7708543 C34.4415978,14.7678392 34.414573,14.7557789 34.4536088,14.801005 C34.6668044,15.1025126 35.0421488,15.2623116 35.333416,15.1899497 Z M43.1646006,12.7869347 C43.2336639,12.7809045 43.3027273,12.7778894 43.3717906,12.7718593 C43.3747934,12.6964824 43.4438567,12.7839196 43.3327548,12.7115578 C43.3868044,12.6964824 43.440854,12.6844221 43.4949036,12.6693467 C43.3868044,12.5939698 43.281708,12.5849246 43.158595,12.4733668 C42.7442149,12.0934673 43.1255647,12.401005 42.7982645,12.238191 C42.6631405,12.3045226 42.7021763,12.2562814 42.5580441,12.2864322 C42.3568595,12.3256281 42.5190083,12.3376884 42.3658678,12.3376884 C42.1766942,12.3376884 42.0896143,12.2954774 41.8674105,12.3557789 C41.9634986,12.4070352 42.0595868,12.4582915 42.1526722,12.5095477 C42.5760606,12.7236181 42.8943526,12.720603 43.1646006,12.7869347 Z M37.9217906,14.2673367 C38.0719284,14.5145729 38.8136088,14.4572864 39.1709366,14.3276382 C39.3961433,14.2462312 39.6543802,14.0894472 39.876584,13.9869347 C40.1228099,13.8723618 40.4320937,13.8211055 40.62427,13.721608 C40.5852342,13.7758794 40.4741322,13.7457286 40.3330028,13.7668342 C39.9126171,13.8241206 38.9757576,14.2070352 38.4172452,14.2824121 C38.1980441,14.3125628 37.8287052,14.2552764 37.7686501,14.0713568 C37.7656474,14.1467337 37.8287052,14.201005 37.9217906,14.2673367 Z M39.2490083,20.9336683 C39.1168871,20.7738693 38.9547383,20.6683417 38.798595,20.4934673 C38.639449,20.318593 38.5133333,20.1497487 38.3661983,19.9688442 C38.1079614,19.6552764 37.8106887,19.2934673 37.5044077,19.1155779 C37.7115978,19.5407035 38.4712948,20.4572864 38.957741,20.8070352 C39.1799449,20.9698492 39.1409091,20.9306533 39.2490083,20.9336683 Z M40.158843,11.8130653 C40.1888705,11.7859296 40.2128926,11.758794 40.2369146,11.7075377 C40.2008815,11.6351759 40.0387328,11.6201005 39.9546556,11.5567839 C39.8195317,11.4663317 39.6844077,11.3788945 39.5492837,11.2884422 C39.1559229,10.9869347 39.1889532,10.8934673 39.0207989,10.8994975 C39.0508264,11.1376884 39.5042424,11.318593 39.6784022,11.4572864 C39.4561983,11.3668342 39.1919559,11.1919598 38.9907713,11.0140704 C38.8826722,11.1768844 38.9427273,11.1859296 39.1559229,11.3336683 C39.2670248,11.4271357 39.3691185,11.4994975 39.4802204,11.5688442 C39.7534711,11.7437186 39.8435537,11.8100503 40.158843,11.8130653 Z M48.9689256,12.7175879 C48.719697,12.9226131 48.4854821,13.2120603 48.1972176,13.4502513 C47.8488981,13.7366834 47.5906612,13.8271357 47.2303306,14.0321608 C47.4285124,13.9537688 47.8669146,14.0140704 48.3623691,13.6040201 C48.5695592,13.4321608 48.9869421,12.9467337 48.9689256,12.7175879 Z M43.3657851,11.9668342 C42.9423967,11.8703518 42.1556749,12.3557789 40.9635813,11.9728643 C40.819449,11.9276382 40.7593939,11.9487437 40.5882369,12.039196 C41.1737741,12.3165829 42.8312948,12.2954774 43.3657851,11.9668342 Z M50.617438,13.5045226 C50.5363636,13.1366834 50.7495592,13.0733668 50.8306336,12.9015075 C50.5273554,13.0613065 50.5573829,13.1035176 50.4252617,13.3417085 C50.4192562,13.2603015 50.3712121,13.2271357 50.5543802,13.0251256 C50.6594766,12.9105528 50.7315427,12.9135678 50.7585675,12.798995 C50.5423691,12.7628141 50.3622039,12.9165829 50.2480992,13.0974874 C49.8487328,13.7336683 49.8157025,13.2994975 49.8727548,13.5829146 C50.0379063,13.5165829 50.1790358,13.6673367 50.3471901,13.4834171 C50.3531956,13.4894472 50.3622039,13.4984925 50.3682094,13.5045226 C50.3712121,13.5045226 50.3802204,13.5135678 50.3802204,13.5135678 C50.4522865,13.558794 50.5243526,13.5256281 50.617438,13.5045226 Z M38.1680165,21.1236181 C37.5044077,21.039196 37.1620937,20.0020101 36.8618182,19.5648241 C36.7927548,19.4743719 36.6936639,19.3718593 36.6125895,19.2723618 C36.5104959,19.1487437 36.459449,19.0613065 36.3273278,18.9889447 C36.6426171,19.4864322 36.9609091,19.9809045 37.2761983,20.478392 C37.4233333,20.6954774 37.6004959,20.9035176 37.7896694,21.0301508 C37.9067769,21.1085427 37.9458127,21.1386935 38.0749311,21.1809045 C38.1980441,21.2140704 38.2250689,21.2170854 38.3301653,21.2110553 C38.7235262,21.2894472 38.7325344,21.3738693 39.2580165,21.3376884 C39.0838567,21.2924623 38.8346281,21.2472362 38.6874931,21.1899497 C37.402314,20.7045226 37.6365289,20.2613065 37.1831129,19.9145729 C37.1200551,19.8663317 37.1410744,19.8874372 37.0900275,19.8663317 C37.4833884,20.7316583 37.6004959,20.7407035 38.1680165,21.1236181 Z M41.9785124,13.4743719 C42.3718733,13.239196 42.3658678,13.0190955 42.6211019,12.8201005 C41.9604959,12.8201005 41.7863361,13.5497487 41.5250964,13.5829146 C41.6632231,13.6100503 41.8433884,13.5648241 41.9785124,13.4743719 Z M47.7107713,12.6211055 C47.7227824,12.6180905 47.7468044,12.5487437 47.7227824,12.5547739 C47.5816529,12.5879397 47.494573,12.6 47.3564463,12.6030151 C46.9270523,12.6150754 46.8009366,12.4884422 46.6237741,12.4462312 C46.1853719,12.3798995 46.7949311,12.8080402 46.9931129,12.8502513 C47.152259,12.9045226 47.3624518,12.9557789 47.5366116,12.798995 C47.323416,12.7145729 47.0861983,12.8201005 46.6958402,12.560804 C46.9210468,12.5788945 47.3504408,12.8502513 47.7107713,12.6211055 Z M40.1678512,11.5778894 C40.3149862,11.6502513 40.2789532,11.6713568 40.4260882,11.6170854 C40.2219008,11.5025126 40.0177135,11.3879397 39.8165289,11.2733668 C39.6123416,11.1286432 39.4291736,10.9085427 39.2580165,10.6673367 C39.227989,10.6944724 39.2009642,10.7246231 39.1709366,10.7517588 C39.0778512,10.8874372 39.1709366,10.6703518 39.1469146,10.8301508 C39.5552893,11.2613065 39.7895041,11.3306533 40.1678512,11.5778894 Z M34.8589807,12.0180905 C35.0121212,11.9246231 35.2193113,11.8100503 35.3394215,11.6532663 C35.4174931,11.5507538 35.3754545,11.598995 35.3934711,11.5658291 C35.357438,11.5567839 35.357438,11.5477387 35.2973829,11.5477387 C35.0421488,11.5537688 34.7028375,11.8040201 34.6998347,12.1266332 C34.7508815,12.0904523 34.8049311,12.0542714 34.8589807,12.0180905 Z M51.3110744,13.1728643 C51.4071625,13.1939698 51.4461983,13.1849246 51.4371901,13.1758794 C50.9327273,12.4613065 51.4492011,12.6361809 51.0678512,12.4040201 C50.9867769,12.521608 51.0138017,12.4040201 51.0107989,12.5849246 C51.0107989,12.6633166 51.0168044,12.7175879 51.0408264,12.7899497 C51.0918733,12.9527638 51.1699449,13.0311558 51.2570248,13.1306533 C50.8216253,12.8532663 50.9957851,12.4703518 50.9687603,12.280402 C50.6744904,12.0241206 50.8456474,12.0271357 50.470303,11.7889447 C50.4913223,11.8673367 50.6955096,12.3346734 50.7495592,12.4824121 C50.8636639,12.7899497 50.8966942,12.9105528 51.1158953,13.1517588 C51.242011,13.2452261 51.2209917,13.2120603 51.3711295,13.2572864 C51.3531129,13.2301508 51.3380992,13.1939698 51.3110744,13.1728643 Z M42.6841598,13.2512563 C42.7111846,13.0673367 42.8132782,12.9919598 42.816281,12.841206 C42.6030854,12.8562814 42.5580441,12.9648241 42.4739669,13.1336683 C42.4049036,13.278392 42.2847934,13.3929648 42.1526722,13.5045226 C42.3298347,13.4201005 42.5069972,13.3356784 42.6841598,13.2512563 Z M47.677741,11.4361809 C47.7287879,11.4271357 47.776832,11.4180905 47.8278788,11.4120603 C47.7137741,11.3457286 47.6597245,11.3457286 47.5246006,11.2673367 C47.2543526,11.0954774 45.9751791,11.1407035 46.0952893,11.2341709 C46.1853719,11.3065327 45.9841873,11.3155779 45.7529752,11.4120603 C45.6989256,11.439196 46.5907438,11.8341709 46.6147658,11.8130653 C46.6327824,11.8221106 46.8249587,11.7256281 47.017135,11.6442211 C47.200303,11.5658291 47.3864738,11.5055276 47.3924793,11.4874372 C47.0801928,11.1256281 46.2664463,11.3095477 46.2514325,11.2582915 C46.2604408,11.1889447 46.6387879,11.2070352 46.7168595,11.2070352 C47.4225069,11.2221106 47.2513499,11.4994975 47.677741,11.4361809 Z M42.326832,11.9396985 C42.1887052,11.8824121 41.9514876,11.8552764 41.7893388,11.8251256 C41.6422039,11.7919598 41.3479339,11.8221106 41.1857851,11.8673367 C41.4260055,12.0030151 42.1076309,11.9969849 42.326832,11.9396985 Z M41.9875207,12.9376884 C42.0385675,12.8502513 42.0085399,12.8623116 41.8704132,12.720603 C41.7743251,12.6030151 41.7322865,12.5366834 41.6632231,12.4040201 C41.5431129,12.3015075 41.5341047,12.3015075 41.3719559,12.3226131 C41.4620386,12.4673367 41.5461157,12.5668342 41.6572176,12.6934673 C41.7773278,12.8321608 41.861405,12.8592965 41.9574931,12.9467337 C41.6001653,12.9165829 41.4650413,12.3407035 41.1557576,12.2653266 C40.9966116,12.2291457 40.4501102,12.0904523 40.3390083,12.1477387 C40.2999725,12.1869347 40.2609366,12.2291457 40.2188981,12.2683417 C40.5101653,12.2984925 41.0116253,12.3798995 41.2458402,12.6241206 C40.7864187,12.4100503 41.1317355,12.4824121 40.4441047,12.4070352 C40.305978,12.3919598 40.1348209,12.3768844 39.9966942,12.4221106 C39.7925069,12.4884422 39.7714876,12.6241206 39.6093388,12.7296482 C39.5072452,12.5879397 39.5733058,12.5668342 39.5913223,12.4462312 C39.4832231,12.4492462 39.4021488,12.5035176 39.2670248,12.4522613 C39.4561983,12.4251256 39.7084298,12.401005 39.7564738,12.2291457 C39.5883196,12.2683417 39.2189807,12.1507538 39.0328099,12.0723618 C38.9607438,12.0452261 38.8916804,12.0180905 38.8196143,11.9909548 C38.774573,12.1658291 38.8226171,12.2170854 38.8136088,12.2834171 C38.8076033,12.3316583 38.7655647,12.3407035 38.7205234,12.5095477 C38.4773003,13.4080402 37.5074105,13.5949749 37.7416253,13.9869347 C38.0809366,14.3758794 38.8376309,14.0683417 39.2339945,13.9718593 C39.5252617,13.9025126 39.5162534,13.8603015 39.7774931,13.7306533 C40.5221763,13.359799 41.0356474,13.8030151 41.7953444,13.0703518 C41.5851515,12.9919598 41.7202755,12.9407035 41.7202755,12.9226131 C41.7983471,12.9768844 41.909449,13.0251256 41.9875207,12.9376884 Z M49.5995041,12.6723618 C49.4013223,12.681407 49.2391736,12.5517588 49.062011,12.3738693 C49.0800275,12.5246231 49.0349862,12.5336683 49.1280716,12.7055276 C49.2571901,12.7809045 49.5484573,12.9346734 49.6685675,12.6874372 C49.8307163,12.6693467 49.7736639,12.6633166 49.7886777,12.6180905 C49.8637466,12.5939698 49.9388154,12.5668342 50.0168871,12.5427136 C49.7346281,12.3467337 49.4793939,11.8613065 49.5664738,11.6080402 C49.6535537,12.0241206 49.7826722,12.4221106 50.1369972,12.5276382 C50.0379063,12.2532663 49.9057851,12.0723618 50.0319008,11.8311558 C50.0409091,12.0422111 50.004876,12.3045226 50.2270799,12.4914573 C50.2450964,12.4703518 50.2511019,12.4371859 50.2450964,12.401005 C50.2420937,12.358794 50.2240771,12.3286432 50.2090634,12.2864322 C50.2631129,12.3437186 50.3171625,12.401005 50.3712121,12.4582915 C50.311157,12.1959799 50.3892287,12.3105528 50.4913223,12.0964824 C50.470303,12.0180905 50.4763085,11.9547739 50.4132507,11.9246231 C50.3501928,11.8944724 50.3291736,11.9306533 50.2631129,11.9246231 C50.4673003,11.7829146 50.3772176,11.7376884 50.2180716,11.5266332 C50.2030579,11.5115578 50.1850413,11.4994975 50.1700275,11.4844221 C49.9598347,11.3005025 49.6955923,11.3517588 49.4013223,11.4452261 C49.3172452,11.6080402 49.2301653,11.7678392 49.1460882,11.9306533 C49.1400826,11.918593 49.1310744,11.9035176 49.1220661,11.8914573 C49.0169697,11.7376884 48.6146006,11.638191 48.4704683,11.5959799 C48.1701928,11.5055276 47.8368871,11.5236181 47.6326997,11.5356784 C47.5396143,11.5417085 47.5516253,11.5447236 47.4675482,11.5839196 C47.2963912,11.6623116 47.0861983,11.719598 46.9030303,11.8160804 C46.686832,11.9336683 46.5366942,12.0633166 46.3595317,12.238191 C46.3865565,12.2562814 46.4105785,12.2773869 46.4346006,12.2954774 C46.5847383,12.2653266 46.6387879,12.3376884 46.8609917,12.4040201 C47.4525344,12.7085427 47.788843,12.4070352 47.9419835,12.319598 C48.0831129,12.241206 48.1822039,12.2110553 48.2722865,12.1658291 C48.4104132,12.081407 48.572562,12.0422111 48.7377135,12.0271357 C48.8067769,12.0211055 49.0590083,12.0904523 49.1370799,12.0361809 C49.2451791,12.1688442 49.3532782,12.2984925 49.4613774,12.4311558 C49.4013223,12.4040201 49.4343526,12.4341709 49.3472727,12.358794 C49.2571901,12.280402 49.221157,12.1809045 49.1010468,12.1115578 C49.0980441,12.1537688 49.0980441,12.1959799 49.0950413,12.238191 C49.1941322,12.5849246 49.4433609,12.6150754 49.5995041,12.6723618 Z M37.0780165,14.4572864 C37.1080441,14.2643216 37.035978,14.3336683 37.0179614,14.0834171 C37.0059504,13.9356784 36.9999449,13.9447236 36.8558127,13.8150754 C36.8498072,13.8211055 36.7927548,13.8271357 36.7867493,13.9175879 C36.7957576,13.7728643 36.8377961,13.679397 36.6456198,13.5829146 C36.5885675,13.5557789 36.3933884,13.5407035 36.3213223,13.5467337 C36.4414325,13.6763819 36.5285124,13.7728643 36.6276033,13.9869347 C36.7266942,14.2100503 36.76573,14.3547739 36.9428926,14.4844221 C36.6035813,14.3487437 36.6636364,13.881407 36.3753719,13.640201 C36.2672727,13.5497487 36.117135,13.5075377 36.0030303,13.4773869 C35.6096694,13.3417085 35.6216804,13.2904523 35.5946556,13.4080402 C35.5616253,13.3929648 35.0841873,13.121608 35.0181267,13.0643216 C34.6998347,12.7809045 34.6818182,12.5668342 34.6067493,12.198995 C33.8200275,12.7929648 34.1473278,13.9477387 34.4956474,14.481407 C34.4986501,14.4844221 34.4896419,14.4874372 34.4806336,14.478392 C34.4656198,14.4633166 34.1983747,14.1256281 34.2163912,14.2281407 C34.2944628,14.4331658 34.2884573,14.4904523 34.3785399,14.6170854 C34.414573,14.6653266 34.4295868,14.6954774 34.4836364,14.719598 C34.7058402,14.8100503 34.9340496,15.0361809 35.4024793,14.7015075 C35.0541598,14.801005 34.7959229,14.8492462 34.549697,14.5658291 C34.4746281,14.4964824 34.5406887,14.5296482 34.5466942,14.5296482 C34.7148485,14.4964824 34.8379614,14.9698492 35.8258678,14.4120603 C35.9760055,14.3276382 36.1651791,14.3095477 36.3243251,14.2613065 C36.1952066,14.1256281 35.7658127,13.6070352 35.6607163,13.4623116 C35.687741,13.4562814 35.67573,13.4834171 35.7838292,13.561809 C36.0360606,13.8422111 36.288292,14.1226131 36.5375207,14.4060302 C36.276281,14.4964824 36.1711846,14.5055276 35.9790083,14.7316583 C35.8558953,14.8854271 35.7327824,15.039196 35.6096694,15.1929648 C36.3063085,14.8824121 35.9519835,15.2683417 36.3423416,14.6502513 C36.3963912,14.5869347 36.4144077,14.5839196 36.4624518,14.5356784 C36.5495317,14.4241206 36.5104959,14.5537688 36.5345179,14.4030151 C36.5615427,14.4211055 36.6666391,14.4904523 36.741708,14.5175879 C36.7507163,14.520603 36.8498072,14.5447236 36.8528099,14.5447236 C37.0329752,14.5386935 36.9338843,14.5326633 36.9519008,14.4904523 C36.9579063,14.478392 37.0660055,14.4964824 37.0780165,14.4874372 C36.8107713,14.2462312 36.7837466,14.0773869 36.7897521,13.9507538 C36.7867493,13.9899497 36.7987603,14.0442211 36.8287879,14.119598 C36.8828375,14.2643216 37.0029477,14.4060302 37.0780165,14.4572864 Z M51.6744077,13.1155779 C51.2870523,12.6633166 51.6293664,12.6994975 51.2930579,12.6030151 C51.2480165,12.8442211 51.3260882,12.9256281 51.5032507,13.1547739 C51.536281,13.1758794 51.6774105,13.1276382 51.6744077,13.1155779 Z M43.9122865,12.7266332 C44.0233884,12.8562814 44.2606061,12.7145729 44.2726171,12.3889447 C44.053416,12.4914573 44.065427,12.5698492 43.9122865,12.7266332 C43.9963636,12.6211055 44.0804408,12.5125628 44.1615152,12.4070352 C44.1224793,12.3949749 44.1855372,12.2954774 44.0263912,12.4070352 C43.7080992,12.4824121 43.4378512,12.720603 43.257686,12.9859296 C43.2426722,13.0070352 43.2246556,13.0251256 43.2096419,13.0462312 C43.4498623,12.9768844 43.7231129,12.8894472 43.9122865,12.7266332 Z M36.4714601,14.8462312 C36.4894766,14.7256281 36.5375207,14.6050251 36.5885675,14.4844221 C36.3873829,14.5899497 36.276281,14.7678392 36.26427,14.9547739 C36.3333333,14.918593 36.4144077,14.9065327 36.4714601,14.8462312 Z M43.4738843,12.4733668 C43.5429477,12.479397 43.6090083,12.4854271 43.6780716,12.4914573 C43.5429477,12.3015075 43.5639669,12.2864322 43.440854,12.2743719 C43.4318457,12.2743719 43.4198347,12.2743719 43.4138292,12.2713568 C43.3597796,12.2683417 43.3838017,12.2743719 43.3387603,12.2834171 C43.3807989,12.3467337 43.428843,12.4100503 43.4738843,12.4733668 C43.3988154,12.4432161 43.5249311,12.5517588 43.3777961,12.4130653 C43.3357576,12.3738693 43.3117355,12.3286432 43.2877135,12.3075377 C43.2006336,12.2321608 43.1976309,12.2562814 43.0595041,12.2773869 C43.2306612,12.5125628 43.3687879,12.6030151 43.587989,12.5758794 C43.5819835,12.5728643 43.4919008,12.4884422 43.4738843,12.4733668 Z M50.9687603,13.1728643 C50.9537466,13.1276382 50.947741,13.0974874 50.8906887,13.1095477 C50.8576584,13.1095477 50.8426446,13.160804 50.8156198,13.1879397 C50.8186226,13.1095477 50.8126171,13.1125628 50.8756749,13.0492462 C50.6414601,13.1125628 50.5964187,13.3115578 50.6744904,13.5316583 C50.6865014,13.5316583 50.8036088,13.4683417 50.8096143,13.4442211 C50.8006061,13.3778894 50.776584,13.3115578 50.8066116,13.2422111 C50.8066116,13.3386935 50.8186226,13.3869347 50.8336364,13.4261307 C51.0978788,13.3055276 50.8846832,13.4080402 50.9687603,13.1728643 Z M37.0299725,14.0864322 C37.0810193,14.1738693 37.0930303,14.3728643 37.1410744,14.4 C37.1861157,14.321608 37.1711019,14.3819095 37.1891185,14.3035176 C37.2731956,13.9839196 37.0299725,14.0864322 37.0299725,14.0864322 Z M36.7026722,14.5326633 C36.5555372,14.598995 36.5435262,14.6291457 36.5255096,14.758794 C36.5285124,14.758794 36.606584,14.8522613 36.6936639,14.7075377 C36.7086777,14.680402 36.7026722,14.5567839 36.7026722,14.5326633 Z M50.5033333,12.6452261 C50.5003306,12.6301508 50.5363636,12.5457286 50.5393664,12.5366834 C50.5513774,12.518593 50.5633884,12.5005025 50.5753994,12.4824121 C50.605427,12.3648241 50.6084298,12.4613065 50.5874105,12.3165829 C50.5723967,12.3135678 50.5483747,12.2984925 50.4973278,12.3135678 C50.4042424,12.4251256 50.4673003,12.5366834 50.5033333,12.6452261 Z M44.542865,12.4341709 C44.4407713,12.4974874 44.4497796,12.5005025 44.4107438,12.5969849 C44.5158402,12.639196 44.4918182,12.6301508 44.5849036,12.6030151 C44.5698898,12.5457286 44.554876,12.4914573 44.542865,12.4341709 C44.7830854,12.4311558 44.98427,12.5246231 45.2695317,12.4522613 C45.1614325,12.4221106 45.0503306,12.3919598 44.9422314,12.361809 C45.2845455,12.4040201 45.9121212,12.4974874 46.3174931,12.4432161 C46.1883747,12.2623116 46.086281,12.3105528 45.8941047,12.3045226 C45.497741,12.2623116 45.1043802,12.2201005 44.7080165,12.1778894 C44.4738017,12.1326633 44.542865,12.198995 44.4257576,12.1809045 C44.4197521,12.1809045 44.359697,12.1628141 44.3506887,12.1567839 C43.7951791,11.9668342 43.624022,11.960804 43.1165565,12.1658291 C43.2126446,12.2321608 43.7861708,12.241206 44.065427,12.2864322 C44.1555096,12.361809 44.2906336,12.3829146 44.407741,12.4040201 C44.2666116,12.4884422 44.2636088,12.5306533 44.2155647,12.6452261 C44.2455923,12.6572864 44.2846281,12.7869347 44.3927273,12.6180905 C44.4317631,12.5547739 44.4257576,12.4914573 44.4137466,12.4040201 C44.4587879,12.4160804 44.5038292,12.4221106 44.542865,12.4341709 Z M39.0117906,10.6100503 C39.2880441,10.398995 39.3571074,10.3959799 39.6633884,10.2693467 C39.3420937,9.98291457 38.6364463,10.0854271 38.1650138,10.118593 C37.6095041,10.1547739 37.0089532,10.3055276 36.6095868,10.7788945 C35.8318733,11.5326633 36.2912948,13.3718593 37.4233333,14.1135678 C37.5554545,13.3809045 38.3481818,13.1939698 38.5553719,12.4824121 C38.6995041,11.9879397 38.6004132,11.5356784 38.7685675,11.0140704 C38.8316253,10.8180905 38.9187052,10.7728643 39.0117906,10.6100503 Z M51.9806887,12.8472362 C52.2899725,12.9648241 52.638292,12.9708543 52.9475758,12.7778894 C52.8544904,12.7326633 52.7193664,12.7477387 52.6653168,12.6361809 C52.8424793,12.6542714 52.8815152,12.7658291 53.1127273,12.6633166 C52.7253719,12.4160804 52.3410193,12.1718593 51.9536639,11.9246231 C51.8966116,11.9487437 51.989697,12.0241206 51.854573,11.921608 C51.4401928,11.6110553 51.1158953,11.2100503 50.4883196,11.520603 C50.6384573,11.8221106 50.9177135,12.0964824 51.1399174,12.2984925 C51.2750413,12.4221106 51.4341873,12.521608 51.5933333,12.6120603 C51.7254545,12.6874372 51.842562,12.7959799 51.9806887,12.8472362 Z M52.3920661,11.9879397 C52.0047107,11.4 51.4552066,11.1949749 50.8756749,11.2160804 C50.740551,11.2221106 50.4012397,11.2371859 50.3712121,11.3969849 C50.4763085,11.4964824 50.4943251,11.4180905 50.6534711,11.3638191 C51.2750413,11.1527638 51.9116253,11.761809 52.3920661,11.9879397 Z M36.7236915,17.840201 C36.7236915,17.840201 36.777741,17.6713568 36.7807438,17.6472362 C36.9398898,16.7487437 37.4323416,16.0613065 38.1890358,15.5969849 C39.4712121,14.8100503 42.1766942,14.3427136 43.7501377,13.8663317 C44.2185675,13.7246231 44.7050138,13.4894472 45.1734435,13.320603 C45.5247658,13.1939698 46.2844628,12.9979899 46.5607163,12.8291457 C45.3716253,12.7386935 43.2216529,13.3386935 41.9484848,13.7095477 C41.3899725,13.8723618 40.9185399,13.8271357 40.4170799,13.9778894 C39.852562,14.1467337 39.3691185,14.5055276 38.7895868,14.6321608 C37.9608264,14.8160804 38.0629201,14.3849246 37.7386226,14.7165829 C37.0239669,15.4552764 36.1231405,16.7005025 36.7236915,17.840201 Z" id="Shape" fill="url(#linearGradient-2)" fill-rule="nonzero"></path>
                        <path d="M69.2975758,10.3115578 C69.4206887,10.441206 69.6158678,10.4683417 69.772011,10.5678392 C69.6849311,10.839196 69.3246006,11.1467337 69.1324242,11.2643216 C68.7961157,11.4723618 68.6850138,11.5507538 68.2796419,11.2974874 C68.4507989,11.0623116 68.5949311,11.0231156 68.7480716,10.6582915 C68.8351515,10.5045226 68.8201377,10.4532663 68.8831956,10.3236181 C69.0543526,9.80502513 69.3366116,9.16582915 69.147438,8.55979899 C69.135427,8.78592965 69.1684573,8.96984925 69.1384298,9.2201005 C69.0573554,9.92261307 68.5018457,11.1768844 68.0514325,11.1859296 C68.3847383,10.7969849 68.5739118,10.7306533 68.8351515,10.1125628 C69.2074931,9.22914573 69.0543526,8.57487437 68.9582645,7.82713568 C68.9162259,7.49547739 68.7931129,7.10954774 68.8982094,6.69648241 C69.012314,7.04321608 68.988292,7.00100503 69.3906612,7.10050251 C69.1384298,7.48944724 69.0483471,7.74271357 69.123416,8.11055276 C69.1774656,7.71859296 69.111405,7.52261307 69.4507163,7.14572864 C69.7509917,7.29346734 70.567741,8.32160804 70.6127824,8.83115578 C70.6428099,9.17788945 70.4956749,9.63015075 70.1653719,9.85929648 C69.931157,10.0341709 69.5498072,9.81105528 69.2975758,10.3115578 M67.8172176,11.0864322 C67.9943802,10.9386935 68.1204959,10.9175879 68.2766391,10.6432161 C68.3967493,10.4351759 68.4538017,10.1969849 68.4718182,9.98894472 C68.5709091,8.87336683 68.0244077,8.15577889 67.7181267,7.29346734 C67.6370523,7.06733668 67.6490634,6.90753769 67.592011,6.72060302 C67.5529752,6.80502513 67.6160331,6.9678392 67.6280441,7.09145729 C67.3908264,6.72361809 66.9193939,5.39396985 67.7421488,5.07135678 C67.5980165,5.27638191 67.6880992,5.4120603 67.8022039,5.56582915 C67.5529752,5.77386935 67.5469697,5.98190955 67.567989,6.27738693 C67.6520661,5.96683417 67.6130303,5.48442211 68.069449,5.74371859 C69.5347934,6.56984925 68.694022,5.89145729 68.805124,7.48944724 C68.8771901,8.18894472 69.3246006,9.45226131 68.4507989,10.640201 C68.2255923,10.9417085 68.0364187,11.1708543 67.8172176,11.0864322 Z M69.0333333,21.319598 C69.4867493,21.0512563 69.943168,21.2623116 70.7839394,20.3487437 C71.1742975,19.9236181 71.7117906,19.1065327 71.9309917,18.8924623 C73.5344628,17.3306533 72.7807713,15.8773869 71.6517355,14.7045226 C71.609697,14.6562814 71.5706612,14.6110553 71.5286226,14.5628141 C71.4955923,14.5085427 71.5015978,14.5145729 71.4895868,14.4753769 C71.5015978,14.4753769 71.5256198,14.481407 71.5226171,14.478392 C71.5556474,14.4874372 71.5886777,14.4934673 71.621708,14.5025126 C71.8198898,14.5899497 72.3003306,15.1356784 72.429449,15.2894472 C73.3753168,16.4231156 73.813719,17.8462312 72.5255372,19.2723618 C72.270303,19.5557789 72.3573829,19.5346734 72.0661157,19.7969849 C71.5226171,20.2914573 71.4715702,20.960804 70.1203306,21.198995 C69.8711019,21.2442211 69.2795592,21.3376884 69.0333333,21.319598 Z M67.5289532,11.4904523 C67.0124793,11.4331658 66.9824518,11.3276382 66.2467769,11.3276382 C64.3190083,11.3276382 63.379146,12.361809 62.7035262,11.8944724 C62.913719,11.7407035 63.9586777,11.3155779 64.2439394,11.2130653 C64.3850689,11.1859296 64.652314,11.080402 64.8024518,11.041206 C66.2738017,10.6643216 67.6580716,10.998995 68.8741873,11.9276382 C68.4237741,11.7829146 67.9763636,11.638191 67.5289532,11.4904523 Z M67.9073003,15.159799 C68.180551,15.3135678 68.1325069,15.3708543 68.0123967,15.2894472 C66.7302204,14.6562814 65.9825344,14.3427136 64.4661433,14.0261307 C63.4932507,13.7909548 63.0518457,13.8060302 62.13,13.121608 C62.5774105,12.8562814 62.3371901,12.919598 63.3100826,13.2060302 C64.4871625,13.7457286 66.2047383,14.0592965 67.3247658,14.7829146 C67.5169421,14.9095477 67.7121212,15.0331658 67.9073003,15.159799 Z M71.1412672,8.33668342 C71.1352617,8.8281407 71.1292562,9.27437186 70.7989532,9.7718593 C70.666832,9.97085427 70.5977686,9.94673367 70.3935813,9.89849246 C70.8560055,9.33768844 70.9100551,8.87638191 70.6097796,8.31557789 C70.4896694,8.08944724 70.4176033,8.05628141 70.6398072,7.79396985 C70.9370799,7.82713568 70.9941322,8.0201005 71.1202479,8.22512563 C71.0782094,7.9959799 70.9731129,7.90552764 70.7268871,7.75477387 C70.9941322,7.67638191 71.2283471,7.89045226 71.462562,7.69447236 C71.7508264,7.45929648 71.6667493,7.05226131 72.0450964,6.95879397 C71.4565565,7.68241206 71.5376309,8.39698492 71.1142424,9.27738693 C71.0932231,9.19296482 71.0992287,9.25929648 71.1022314,9.15979899 C71.1232507,9.0361809 71.14427,8.91256281 71.168292,8.7919598 C71.1833058,8.61105528 71.1833058,8.47537688 71.1412672,8.33668342 Z M60.2082369,12.5788945 C60.1962259,12.5788945 60.2082369,12.5035176 60.2082369,12.4160804 C60.2052342,12.3226131 60.1842149,12.2231156 60.2142424,12.1929648 C61.0430028,12.1236181 61.3673003,13.0522613 61.9678512,13.4351759 C62.2080716,13.5979899 62.448292,13.760804 62.6855096,13.9266332 C62.3191736,13.9929648 61.7156198,13.6552764 61.3282645,13.4291457 C60.7427273,13.0854271 60.3944077,12.6723618 60.2082369,12.5788945 Z M64.4751515,12.0271357 C64.1658678,12.0301508 63.1689532,12.198995 62.9467493,12.1236181 C63.3190909,12.1718593 64.3490358,11.7105528 65.1567769,11.5447236 C65.5261157,11.4693467 65.9104683,11.4211055 66.3248485,11.4180905 C66.6011019,11.4150754 67.3157576,11.4542714 67.5169421,11.6261307 C66.955427,11.6170854 65.3159229,11.8492462 64.616281,11.9819095 C64.5682369,11.9939698 64.5231956,12.0120603 64.4751515,12.0271357 Z M71.6937741,14.3306533 C72.381405,14.7256281 73.2221763,15.4130653 74.1230028,15.2713568 C74.41427,15.2261307 74.4833333,15.1477387 74.7776033,14.8854271 C74.7746006,15.2713568 74.3091736,15.4974874 74.1109917,15.5728643 C73.8437466,15.6753769 73.5885124,15.7507538 73.2251791,15.6693467 C72.6006061,15.5276382 72.6606612,15.2472362 72.0691185,14.7135678 C71.9940496,14.6442211 71.927989,14.5959799 71.8559229,14.5386935 C71.7268044,14.439196 71.7147934,14.4301508 71.6937741,14.3306533 Z M65.0006336,14.2613065 C65.7633333,14.4663317 67.3547934,15.2020101 67.8382369,15.8231156 C67.8652617,15.8743719 67.8922865,15.9286432 67.9193113,15.9798995 C67.6520661,15.8050251 67.5169421,15.639196 67.1896419,15.4613065 C66.9614325,15.3376884 66.3879063,15.081407 65.8624242,14.8582915 C65.9074656,14.879397 65.9495041,14.9005025 65.9915427,14.9246231 C67.420854,15.7809045 67.5709917,16.0673367 68.4357851,17.4512563 C66.49,15.358794 66.2978237,15.5065327 65.1477686,15.0090452 C64.2529477,14.6201005 63.4241873,14.3849246 62.9617631,14.041206 C63.2350138,14.0110553 63.6373829,14.1437186 63.9556749,14.2190955 C64.162865,14.2944724 64.3880716,14.3577889 64.6252893,14.4331658 C64.8865289,14.5145729 65.2378512,14.6170854 65.5501377,14.7346734 C65.2558678,14.6140704 65.0066391,14.5175879 64.8835262,14.481407 C63.8355647,14.1648241 62.8476584,13.9145729 61.9678512,13.1155779 C62.6554821,13.5135678 62.3852342,13.5376884 63.4722314,13.8934673 C64.0127273,14.0653266 64.4841598,14.1226131 65.0006336,14.2613065 Z M70.225427,20.5447236 C70.4296143,19.9447236 70.702865,19.2482412 71.1712948,18.9075377 C71.6277135,18.5758794 71.8439118,18.6723618 72.4594766,18.1115578 C72.1892287,18.6663317 71.6877686,18.9467337 71.3244353,19.2874372 C71.1382645,19.4623116 70.3215152,20.3819095 70.225427,20.5447236 Z M62.6825069,12.6844221 C62.8656749,12.4462312 63.2530303,12.5276382 63.5202755,12.5306533 C64.31,12.5457286 65.6161983,12.9286432 66.2948209,13.2934673 C66.1116529,13.3025126 64.3910744,12.8170854 63.5412948,12.7386935 C63.2710468,12.7145729 62.9167218,12.7266332 62.6825069,12.6844221 Z M70.9190634,9.93467337 C70.9010468,9.80201005 71.1652893,9.3919598 71.291405,9.06030151 C71.3995041,8.7798995 71.4925895,8.49648241 71.5676584,8.2160804 C71.6787603,7.79698492 71.8529201,6.78994975 72.4384573,6.91356784 C72.3693939,7.01005025 72.3063361,7.10050251 72.2492837,7.1879397 C72.381405,7.01909548 72.5225344,6.90150754 72.6426446,6.91055276 C72.723719,6.91658291 72.9999725,6.98592965 73.1020661,7.0160804 C73.2101653,7.05527638 73.3182645,7.09447236 73.4263636,7.13366834 C72.9699449,7.40201005 73.0810468,7.22110553 72.6726722,7.80301508 C72.2192562,8.47537688 72.0060606,9.32864322 71.486584,9.98291457 C71.4715702,10.0221106 70.9821212,9.9798995 71.0361708,9.93467337 C71.3934986,9.47336683 71.5376309,9.14170854 71.7087879,8.52663317 C71.7778512,8.3638191 71.9580165,7.93869347 72.0420937,7.80301508 C72.1592011,7.58894472 72.3273554,7.41105528 72.4594766,7.20603015 C72.1171625,7.55276382 72.0210744,7.64924623 71.8018733,8.1798995 C71.792865,8.05929648 71.8799449,7.80904523 72.0090634,7.56180905 C71.5226171,8.39095477 71.6907713,8.60201005 71.3965014,9.2080402 C71.2853994,9.44623116 71.1292562,9.86532663 70.9190634,9.93467337 Z M73.9788705,12.081407 C74.2010744,12.1025126 74.3121763,12.1296482 74.3662259,12.4522613 C74.3692287,12.4763819 74.3722314,12.5005025 74.3782369,12.5276382 C74.2401102,12.9919598 73.4864187,13.2572864 73.2642149,13.2844221 C73.4203581,13.0974874 73.5915152,12.9798995 73.6725895,12.7055276 C73.7656749,12.3829146 73.7116253,12.3527638 73.9788705,12.081407 Z M69.429697,12.1748744 C69.2645455,12.1055276 69.2315152,12.0512563 69.135427,11.9005025 C70.1833884,11.5507538 69.7449862,11.5778894 70.2884848,11.3005025 C70.3515427,11.4361809 70.3635537,11.641206 70.3545455,11.8341709 C70.1443526,12.0603015 69.4927548,12.2110553 69.429697,12.1748744 Z M59.5926722,13.3236181 C58.9470799,13.2904523 59.178292,12.8020101 58.517686,12.7085427 C59.3614601,12.4763819 59.4485399,13.0492462 59.9079614,12.8653266 C59.9650138,12.841206 60.0220661,12.8140704 60.0821212,12.7899497 C59.9409917,13.0160804 59.9019559,13.1969849 59.7307989,13.2964824 C59.6797521,13.3296482 59.6527273,13.3266332 59.5926722,13.3236181 Z M73.8497521,15.1899497 C73.3633058,14.9969849 73.372314,14.6442211 72.7957851,14.3668342 C73.4083471,14.1437186 73.7656749,15.319598 74.7355647,14.7708543 C74.7415702,14.7678392 74.768595,14.7557789 74.7295592,14.801005 C74.5163636,15.1025126 74.1410193,15.2623116 73.8497521,15.1899497 Z M66.0215702,12.7869347 C65.9525069,12.7809045 65.8834435,12.7778894 65.8143802,12.7718593 C65.8113774,12.6964824 65.742314,12.7839196 65.853416,12.7115578 C65.7993664,12.6964824 65.7453168,12.6844221 65.6912672,12.6693467 C65.7993664,12.5939698 65.9044628,12.5849246 66.0275758,12.4733668 C66.4419559,12.0934673 66.0606061,12.401005 66.3879063,12.238191 C66.5230303,12.3045226 66.4839945,12.2562814 66.6281267,12.2864322 C66.8293113,12.3256281 66.6671625,12.3376884 66.820303,12.3376884 C67.0094766,12.3376884 67.0965565,12.2954774 67.3187603,12.3557789 C67.2226722,12.4070352 67.126584,12.4582915 67.0334986,12.5095477 C66.6101102,12.7236181 66.2888154,12.720603 66.0215702,12.7869347 Z M71.2643802,14.2673367 C71.1142424,14.5145729 70.372562,14.4572864 70.0152342,14.3276382 C69.7900275,14.2462312 69.5317906,14.0894472 69.3095868,13.9869347 C69.0633609,13.8723618 68.7540771,13.8211055 68.5619008,13.721608 C68.6009366,13.7758794 68.7120386,13.7457286 68.853168,13.7668342 C69.2735537,13.8241206 70.2104132,14.2070352 70.7689256,14.2824121 C70.9881267,14.3125628 71.3574656,14.2552764 71.4175207,14.0713568 C71.4175207,14.1467337 71.3574656,14.201005 71.2643802,14.2673367 Z M69.9341598,20.9336683 C70.066281,20.7738693 70.2284298,20.6683417 70.384573,20.4934673 C70.543719,20.318593 70.6698347,20.1497487 70.8169697,19.9688442 C71.0752066,19.6552764 71.3724793,19.2934673 71.6787603,19.1155779 C71.4715702,19.5407035 70.7118733,20.4572864 70.225427,20.8070352 C70.0032231,20.9698492 70.042259,20.9306533 69.9341598,20.9336683 Z M69.0243251,11.8130653 C68.9942975,11.7859296 68.9702755,11.758794 68.9462534,11.7075377 C68.9822865,11.6351759 69.1444353,11.6201005 69.2285124,11.5567839 C69.3636364,11.4663317 69.4987603,11.3788945 69.6338843,11.2884422 C70.0272452,10.9869347 69.9942149,10.8934673 70.1623691,10.8994975 C70.1323416,11.1376884 69.6789256,11.318593 69.5047658,11.4572864 C69.7269697,11.3668342 69.9912121,11.1919598 70.1923967,11.0140704 C70.3004959,11.1768844 70.2404408,11.1859296 70.0272452,11.3336683 C69.9161433,11.4271357 69.8140496,11.4994975 69.7029477,11.5688442 C69.429697,11.7437186 69.3426171,11.8100503 69.0243251,11.8130653 Z M60.2142424,12.7175879 C60.4634711,12.9226131 60.697686,13.2120603 60.9859504,13.4502513 C61.33427,13.7366834 61.5925069,13.8271357 61.9528375,14.0321608 C61.7546556,13.9537688 61.3162534,14.0140704 60.8207989,13.6040201 C60.6136088,13.4321608 60.1962259,12.9467337 60.2142424,12.7175879 Z M65.8173829,11.9668342 C66.2407713,11.8703518 67.0274931,12.3557789 68.2195868,11.9728643 C68.363719,11.9276382 68.4237741,11.9487437 68.5949311,12.039196 C68.0093939,12.3165829 66.3518733,12.2954774 65.8173829,11.9668342 Z M58.56573,13.5045226 C58.6468044,13.1366834 58.4336088,13.0733668 58.3525344,12.9015075 C58.6558127,13.0613065 58.6257851,13.1035176 58.7579063,13.3417085 C58.7639118,13.2603015 58.8119559,13.2271357 58.6287879,13.0251256 C58.5236915,12.9105528 58.4516253,12.9135678 58.4246006,12.798995 C58.6407989,12.7628141 58.8209642,12.9165829 58.9350689,13.0974874 C59.3344353,13.7336683 59.3674656,13.2994975 59.3104132,13.5829146 C59.1452617,13.5165829 59.0041322,13.6673367 58.835978,13.4834171 C58.8299725,13.4894472 58.8209642,13.4984925 58.8149587,13.5045226 C58.8119559,13.5045226 58.8029477,13.5135678 58.8029477,13.5135678 C58.7308815,13.558794 58.6618182,13.5256281 58.56573,13.5045226 Z M71.0151515,21.1236181 C71.6787603,21.039196 72.0210744,20.0020101 72.3213499,19.5648241 C72.3904132,19.4743719 72.4895041,19.3718593 72.5705785,19.2723618 C72.6726722,19.1487437 72.723719,19.0613065 72.8558402,18.9889447 C72.540551,19.4864322 72.222259,19.9809045 71.9069697,20.478392 C71.7598347,20.6954774 71.5826722,20.9035176 71.3934986,21.0301508 C71.2763912,21.1085427 71.2373554,21.1386935 71.1082369,21.1809045 C70.985124,21.2140704 70.9580992,21.2170854 70.8530028,21.2110553 C70.4596419,21.2894472 70.4506336,21.3738693 69.9251515,21.3376884 C70.0993113,21.2924623 70.3485399,21.2472362 70.4956749,21.1899497 C71.780854,20.7045226 71.5466391,20.2613065 72.0000551,19.9145729 C72.0631129,19.8663317 72.0420937,19.8874372 72.0931405,19.8663317 C71.6997796,20.7316583 71.5856749,20.7407035 71.0151515,21.1236181 Z M67.2046556,13.4743719 C66.8112948,13.239196 66.8173003,13.0190955 66.5620661,12.8201005 C67.2226722,12.8201005 67.396832,13.5497487 67.6580716,13.5829146 C67.5199449,13.6100503 67.3427824,13.5648241 67.2046556,13.4743719 Z M61.4723967,12.6211055 C61.4603857,12.6180905 61.4363636,12.5487437 61.4603857,12.5547739 C61.6015152,12.5879397 61.688595,12.6 61.8267218,12.6030151 C62.2561157,12.6150754 62.3822314,12.4884422 62.5593939,12.4462312 C62.9977961,12.3798995 62.3882369,12.8080402 62.1900551,12.8502513 C62.0309091,12.9045226 61.8207163,12.9557789 61.6465565,12.798995 C61.8597521,12.7145729 62.0969697,12.8201005 62.4873278,12.560804 C62.2621212,12.5788945 61.8327273,12.8502513 61.4723967,12.6211055 Z M69.0183196,11.5778894 C68.8711846,11.6502513 68.9072176,11.6713568 68.7600826,11.6170854 C68.96427,11.5025126 69.1684573,11.3879397 69.3696419,11.2733668 C69.5738292,11.1286432 69.7569972,10.9085427 69.9281543,10.6673367 C69.9581818,10.6944724 69.9852066,10.7246231 70.0152342,10.7517588 C70.1083196,10.8874372 70.0152342,10.6703518 70.0392562,10.8301508 C69.6278788,11.2613065 69.3936639,11.3306533 69.0183196,11.5778894 Z M74.3271901,12.0180905 C74.1740496,11.9246231 73.9668595,11.8100503 73.8467493,11.6532663 C73.7686777,11.5507538 73.8107163,11.598995 73.7926997,11.5658291 C73.8287328,11.5567839 73.8287328,11.5477387 73.8887879,11.5477387 C74.144022,11.5537688 74.4833333,11.8040201 74.4863361,12.1266332 C74.4352893,12.0904523 74.3812397,12.0542714 74.3271901,12.0180905 Z M57.8720937,13.1728643 C57.7760055,13.1939698 57.7369697,13.1849246 57.745978,13.1758794 C58.2504408,12.4613065 57.7309642,12.6361809 58.1153168,12.4040201 C58.1963912,12.521608 58.1693664,12.4040201 58.1723691,12.5849246 C58.1723691,12.6633166 58.1663636,12.7175879 58.1423416,12.7899497 C58.0912948,12.9527638 58.0132231,13.0311558 57.9261433,13.1306533 C58.3615427,12.8532663 58.1873829,12.4703518 58.2144077,12.280402 C58.5086777,12.0241206 58.3375207,12.0271357 58.712865,11.7889447 C58.6918457,11.8673367 58.4876584,12.3346734 58.4336088,12.4824121 C58.3195041,12.7899497 58.2864738,12.9105528 58.0672727,13.1517588 C57.941157,13.2452261 57.9621763,13.2120603 57.8120386,13.2572864 C57.8300551,13.2301508 57.8450689,13.1939698 57.8720937,13.1728643 Z M66.4990083,13.2512563 C66.4719835,13.0673367 66.3698898,12.9919598 66.3668871,12.841206 C66.5800826,12.8562814 66.625124,12.9648241 66.7092011,13.1336683 C66.7782645,13.278392 66.8983747,13.3929648 67.0304959,13.5045226 C66.8533333,13.4201005 66.6761708,13.3356784 66.4990083,13.2512563 Z M61.505427,11.4361809 C61.4543802,11.4271357 61.4063361,11.4180905 61.3552893,11.4120603 C61.4693939,11.3457286 61.5234435,11.3457286 61.6585675,11.2673367 C61.9288154,11.0954774 63.207989,11.1407035 63.0878788,11.2341709 C62.9977961,11.3065327 63.1989807,11.3155779 63.4301928,11.4120603 C63.4842424,11.439196 62.5924242,11.8341709 62.5684022,11.8130653 C62.5503857,11.8221106 62.3582094,11.7256281 62.1660331,11.6442211 C61.982865,11.5658291 61.7966942,11.5055276 61.7906887,11.4874372 C62.1029752,11.1256281 62.9167218,11.3095477 62.9317355,11.2582915 C62.9227273,11.1889447 62.5443802,11.2070352 62.4663085,11.2070352 C61.7636639,11.2221106 61.9318182,11.4994975 61.505427,11.4361809 Z M66.8593388,11.9396985 C66.9974656,11.8824121 67.2346832,11.8552764 67.396832,11.8251256 C67.5439669,11.7919598 67.8382369,11.8221106 68.0003857,11.8673367 C67.7571625,12.0030151 67.0785399,11.9969849 66.8593388,11.9396985 Z M67.1956474,12.9376884 C67.1446006,12.8502513 67.1746281,12.8623116 67.3127548,12.720603 C67.408843,12.6030151 67.4508815,12.5366834 67.5199449,12.4040201 C67.6400551,12.3015075 67.6490634,12.3015075 67.8112121,12.3226131 C67.7211295,12.4673367 67.6370523,12.5668342 67.5259504,12.6934673 C67.4058402,12.8321608 67.3217631,12.8592965 67.2256749,12.9467337 C67.5830028,12.9165829 67.7181267,12.3407035 68.0274105,12.2653266 C68.1865565,12.2291457 68.7330579,12.0904523 68.8441598,12.1477387 C68.8831956,12.1869347 68.9222314,12.2291457 68.96427,12.2683417 C68.6730028,12.2984925 68.1715427,12.3798995 67.9373278,12.6241206 C68.3967493,12.4100503 68.0514325,12.4824121 68.7390634,12.4070352 C68.8771901,12.3919598 69.0483471,12.3768844 69.1864738,12.4221106 C69.3906612,12.4884422 69.4116804,12.6241206 69.5738292,12.7296482 C69.6759229,12.5879397 69.6098623,12.5668342 69.5918457,12.4462312 C69.6999449,12.4492462 69.7810193,12.5035176 69.9161433,12.4522613 C69.7269697,12.4251256 69.4747383,12.401005 69.4266942,12.2291457 C69.5948485,12.2683417 69.9641873,12.1507538 70.1503581,12.0723618 C70.2224242,12.0452261 70.2914876,12.0180905 70.3635537,11.9909548 C70.408595,12.1658291 70.360551,12.2170854 70.3695592,12.2834171 C70.3755647,12.3316583 70.4176033,12.3407035 70.4626446,12.5095477 C70.7058678,13.4080402 71.6757576,13.5949749 71.4415427,13.9869347 C71.1022314,14.3758794 70.3455372,14.0683417 69.9491736,13.9718593 C69.6579063,13.9025126 69.6669146,13.8603015 69.4056749,13.7306533 C68.6609917,13.359799 68.1475207,13.8030151 67.3878237,13.0703518 C67.5980165,12.9919598 67.4628926,12.9407035 67.4628926,12.9226131 C67.3848209,12.9768844 67.273719,13.0251256 67.1956474,12.9376884 Z M59.5836639,12.6723618 C59.7818457,12.681407 59.9439945,12.5517588 60.121157,12.3738693 C60.1031405,12.5246231 60.1481818,12.5336683 60.0550964,12.7055276 C59.925978,12.7809045 59.6347107,12.9346734 59.5146006,12.6874372 C59.3524518,12.6693467 59.4095041,12.6633166 59.3944904,12.6180905 C59.3194215,12.5939698 59.2443526,12.5668342 59.166281,12.5427136 C59.4485399,12.3467337 59.7037741,11.8613065 59.6166942,11.6080402 C59.5296143,12.0241206 59.4004959,12.4221106 59.0461708,12.5276382 C59.1452617,12.2532663 59.2773829,12.0723618 59.1512672,11.8311558 C59.142259,12.0422111 59.178292,12.3045226 58.9560882,12.4914573 C58.9380716,12.4703518 58.9320661,12.4371859 58.9380716,12.401005 C58.9410744,12.358794 58.9590909,12.3286432 58.9741047,12.2864322 C58.9200551,12.3437186 58.8660055,12.401005 58.8119559,12.4582915 C58.872011,12.1959799 58.7939394,12.3105528 58.6918457,12.0964824 C58.712865,12.0180905 58.7068595,11.9547739 58.7699174,11.9246231 C58.8329752,11.8944724 58.8539945,11.9306533 58.9200551,11.9246231 C58.7158678,11.7829146 58.8059504,11.7376884 58.9650964,11.5266332 C58.9801102,11.5115578 58.9981267,11.4994975 59.0131405,11.4844221 C59.2233333,11.3005025 59.4875758,11.3517588 59.7818457,11.4452261 C59.8659229,11.6080402 59.9530028,11.7678392 60.0370799,11.9306533 C60.0430854,11.918593 60.0520937,11.9035176 60.0611019,11.8914573 C60.1661983,11.7376884 60.5685675,11.638191 60.7126997,11.5959799 C61.0129752,11.5055276 61.346281,11.5236181 61.5504683,11.5356784 C61.6435537,11.5417085 61.6315427,11.5447236 61.7156198,11.5839196 C61.8867769,11.6623116 62.0969697,11.719598 62.2801377,11.8160804 C62.4963361,11.9336683 62.6464738,12.0633166 62.8236364,12.238191 C62.7966116,12.2562814 62.7725895,12.2773869 62.7485675,12.2954774 C62.5984298,12.2653266 62.5443802,12.3376884 62.3221763,12.4040201 C61.7306336,12.7085427 61.3943251,12.4070352 61.2411846,12.319598 C61.1000551,12.241206 61.0009642,12.2110553 60.9108815,12.1658291 C60.7727548,12.081407 60.6106061,12.0422111 60.4454545,12.0271357 C60.3763912,12.0211055 60.1241598,12.0904523 60.0460882,12.0361809 C59.937989,12.1688442 59.8298898,12.2984925 59.7217906,12.4311558 C59.7818457,12.4040201 59.7488154,12.4341709 59.8358953,12.358794 C59.925978,12.280402 59.962011,12.1809045 60.0821212,12.1115578 C60.085124,12.1537688 60.085124,12.1959799 60.0881267,12.238191 C59.9890358,12.5849246 59.7398072,12.6150754 59.5836639,12.6723618 Z M72.1051515,14.4572864 C72.075124,14.2643216 72.1471901,14.3336683 72.1652066,14.0834171 C72.1772176,13.9356784 72.1832231,13.9447236 72.3273554,13.8150754 C72.3333609,13.8211055 72.3904132,13.8271357 72.3964187,13.9175879 C72.3874105,13.7728643 72.3453719,13.679397 72.5375482,13.5829146 C72.5946006,13.5557789 72.7897796,13.5407035 72.8618457,13.5467337 C72.7417355,13.6763819 72.6546556,13.7728643 72.5555647,13.9869347 C72.4564738,14.2100503 72.417438,14.3547739 72.2402755,14.4844221 C72.5795868,14.3487437 72.5195317,13.881407 72.8077961,13.640201 C72.9158953,13.5497487 73.0660331,13.5075377 73.1801377,13.4773869 C73.5734986,13.3417085 73.5614876,13.2904523 73.5885124,13.4080402 C73.6215427,13.3929648 74.0989807,13.121608 74.1650413,13.0643216 C74.4833333,12.7809045 74.5013499,12.5668342 74.5764187,12.198995 C75.3631405,12.7929648 75.0358402,13.9477387 74.6875207,14.481407 C74.6845179,14.4844221 74.6935262,14.4874372 74.7025344,14.478392 C74.7175482,14.4633166 74.9847934,14.1256281 74.9667769,14.2281407 C74.8887052,14.4331658 74.8947107,14.4904523 74.8046281,14.6170854 C74.768595,14.6653266 74.7535813,14.6954774 74.6995317,14.719598 C74.4773278,14.8100503 74.2491185,15.0361809 73.7806887,14.7015075 C74.1290083,14.801005 74.3872452,14.8492462 74.6334711,14.5658291 C74.7085399,14.4964824 74.6424793,14.5296482 74.6364738,14.5296482 C74.4683196,14.4964824 74.3452066,14.9698492 73.3573003,14.4120603 C73.2071625,14.3276382 73.017989,14.3095477 72.858843,14.2613065 C72.9879614,14.1256281 73.4173554,13.6070352 73.5224518,13.4623116 C73.495427,13.4562814 73.507438,13.4834171 73.3993388,13.561809 C73.1471074,13.8422111 72.894876,14.1226131 72.6456474,14.4060302 C72.9068871,14.4964824 73.0119835,14.5055276 73.2041598,14.7316583 C73.3272727,14.8854271 73.4503857,15.039196 73.5734986,15.1929648 C72.8768595,14.8824121 73.2311846,15.2683417 72.8408264,14.6502513 C72.7867769,14.5869347 72.7687603,14.5839196 72.7207163,14.5356784 C72.6336364,14.4241206 72.6726722,14.5537688 72.6486501,14.4030151 C72.6216253,14.4211055 72.5165289,14.4904523 72.4414601,14.5175879 C72.4324518,14.520603 72.3333609,14.5447236 72.3303581,14.5447236 C72.1501928,14.5386935 72.2492837,14.5326633 72.2312672,14.4904523 C72.2252617,14.478392 72.1171625,14.4964824 72.1051515,14.4874372 C72.3723967,14.2462312 72.3994215,14.0773869 72.393416,13.9507538 C72.3964187,13.9899497 72.3844077,14.0442211 72.3543802,14.119598 C72.3003306,14.2643216 72.1832231,14.4060302 72.1051515,14.4572864 Z M57.5087603,13.1155779 C57.8961157,12.6633166 57.5538017,12.6994975 57.8901102,12.6030151 C57.9351515,12.8442211 57.8570799,12.9256281 57.6799174,13.1547739 C57.6468871,13.1758794 57.5057576,13.1276382 57.5087603,13.1155779 Z M65.2708815,12.7266332 C65.1597796,12.8562814 64.922562,12.7145729 64.910551,12.3889447 C65.1327548,12.4914573 65.1207438,12.5698492 65.2708815,12.7266332 C65.1868044,12.6211055 65.1027273,12.5125628 65.0216529,12.4070352 C65.0606887,12.3949749 64.9976309,12.2954774 65.1567769,12.4070352 C65.4750689,12.4824121 65.7453168,12.720603 65.9254821,12.9859296 C65.9404959,13.0070352 65.9585124,13.0251256 65.9735262,13.0462312 C65.7333058,12.9768844 65.4600551,12.8894472 65.2708815,12.7266332 Z M72.711708,14.8462312 C72.6936915,14.7256281 72.6456474,14.6050251 72.5946006,14.4844221 C72.7957851,14.5899497 72.9068871,14.7678392 72.9188981,14.9547739 C72.8498347,14.918593 72.7717631,14.9065327 72.711708,14.8462312 Z M65.7092837,12.4733668 C65.6402204,12.479397 65.5741598,12.4854271 65.5050964,12.4914573 C65.6402204,12.3015075 65.6192011,12.2864322 65.742314,12.2743719 C65.7513223,12.2743719 65.7633333,12.2743719 65.7693388,12.2713568 C65.8233884,12.2683417 65.7993664,12.2743719 65.8444077,12.2834171 C65.8023691,12.3467337 65.7573278,12.4100503 65.7092837,12.4733668 C65.7843526,12.4432161 65.6582369,12.5517588 65.8053719,12.4130653 C65.8474105,12.3738693 65.8714325,12.3286432 65.8954545,12.3075377 C65.9825344,12.2321608 65.9855372,12.2562814 66.1236639,12.2773869 C65.9525069,12.5125628 65.8143802,12.6030151 65.5951791,12.5758794 C65.6011846,12.5728643 65.6912672,12.4884422 65.7092837,12.4733668 Z M58.2144077,13.1728643 C58.2294215,13.1276382 58.235427,13.0974874 58.2924793,13.1095477 C58.3255096,13.1095477 58.3405234,13.160804 58.3675482,13.1879397 C58.3645455,13.1095477 58.370551,13.1125628 58.3074931,13.0492462 C58.5387052,13.1125628 58.5867493,13.3115578 58.5086777,13.5316583 C58.4966667,13.5316583 58.3795592,13.4683417 58.3735537,13.4442211 C58.382562,13.3778894 58.406584,13.3115578 58.3765565,13.2422111 C58.3765565,13.3386935 58.3645455,13.3869347 58.3495317,13.4261307 C58.0852893,13.3055276 58.2984848,13.4080402 58.2144077,13.1728643 Z M72.1531956,14.0864322 C72.1051515,14.1738693 72.0901377,14.3728643 72.0420937,14.4 C71.9970523,14.321608 72.0120661,14.3819095 71.9940496,14.3035176 C71.9129752,13.9839196 72.1531956,14.0864322 72.1531956,14.0864322 Z M72.4834986,14.5326633 C72.6306336,14.598995 72.6426446,14.6291457 72.6606612,14.758794 C72.6576584,14.758794 72.5795868,14.8522613 72.4925069,14.7075377 C72.4774931,14.680402 72.4834986,14.5567839 72.4834986,14.5326633 Z M58.6798347,12.6452261 C58.6828375,12.6301508 58.6468044,12.5457286 58.6438017,12.5366834 C58.6317906,12.518593 58.6197796,12.5005025 58.6077686,12.4824121 C58.577741,12.3648241 58.5747383,12.4613065 58.5957576,12.3165829 C58.6107713,12.3135678 58.6347934,12.2984925 58.6858402,12.3135678 C58.7819284,12.4251256 58.7158678,12.5366834 58.6798347,12.6452261 Z M64.640303,12.4341709 C64.7423967,12.4974874 64.7333884,12.5005025 64.7724242,12.5969849 C64.6673278,12.639196 64.6913499,12.6301508 64.5982645,12.6030151 C64.6132782,12.5457286 64.628292,12.4914573 64.640303,12.4341709 C64.4000826,12.4311558 64.1988981,12.5246231 63.9136364,12.4522613 C64.0217355,12.4221106 64.1328375,12.3919598 64.2409366,12.361809 C63.8986226,12.4040201 63.2710468,12.4974874 62.8656749,12.4432161 C62.9947934,12.2623116 63.0968871,12.3105528 63.2890634,12.3045226 C63.685427,12.2623116 64.0787879,12.2201005 64.4751515,12.1778894 C64.7093664,12.1326633 64.640303,12.198995 64.7574105,12.1809045 C64.763416,12.1809045 64.8234711,12.1628141 64.8324793,12.1567839 C65.387989,11.9668342 65.559146,11.960804 66.0666116,12.1658291 C65.9705234,12.2321608 65.3969972,12.241206 65.117741,12.2864322 C65.0276584,12.361809 64.8925344,12.3829146 64.775427,12.4040201 C64.9165565,12.4884422 64.9195592,12.5306533 64.9676033,12.6452261 C64.9375758,12.6572864 64.8955372,12.7869347 64.7904408,12.6180905 C64.751405,12.5547739 64.7574105,12.4914573 64.7694215,12.4040201 C64.7273829,12.4160804 64.6793388,12.4221106 64.640303,12.4341709 Z M70.1713774,10.6100503 C69.895124,10.398995 69.8260606,10.3959799 69.5197796,10.2693467 C69.8410744,9.98291457 70.5467218,10.0854271 71.0181543,10.118593 C71.5736639,10.1547739 72.1742149,10.3055276 72.5735813,10.7788945 C73.3512948,11.5326633 72.8918733,13.3718593 71.7598347,14.1135678 C71.6277135,13.3809045 70.8349862,13.1939698 70.6277961,12.4824121 C70.4836639,11.9879397 70.5827548,11.5356784 70.4146006,11.0140704 C70.3515427,10.8180905 70.2644628,10.7728643 70.1713774,10.6100503 Z M57.2024793,12.8472362 C56.8931956,12.9648241 56.544876,12.9708543 56.2355923,12.7778894 C56.3286777,12.7326633 56.4638017,12.7477387 56.5178512,12.6361809 C56.3406887,12.6542714 56.3016529,12.7658291 56.0704408,12.6633166 C56.4577961,12.4160804 56.8421488,12.1718593 57.2295041,11.9246231 C57.2865565,11.9487437 57.1934711,12.0241206 57.328595,11.921608 C57.7429752,11.6110553 58.0672727,11.2100503 58.6948485,11.520603 C58.5447107,11.8221106 58.2654545,12.0964824 58.0432507,12.2984925 C57.9081267,12.4221106 57.7489807,12.521608 57.5898347,12.6120603 C57.4577135,12.6874372 57.3406061,12.7959799 57.2024793,12.8472362 Z M56.7941047,11.9879397 C57.1814601,11.4 57.7309642,11.1949749 58.3104959,11.2160804 C58.4456198,11.2221106 58.7849311,11.2371859 58.8149587,11.3969849 C58.7098623,11.4964824 58.6918457,11.4180905 58.5326997,11.3638191 C57.9081267,11.1527638 57.2715427,11.761809 56.7941047,11.9879397 Z M72.4594766,17.840201 C72.4594766,17.840201 72.405427,17.6713568 72.4024242,17.6472362 C72.2432782,16.7487437 71.7508264,16.0613065 70.9941322,15.5969849 C69.7119559,14.8100503 67.0064738,14.3427136 65.4330303,13.8663317 C64.9646006,13.7246231 64.4781543,13.4894472 64.0097245,13.320603 C63.6584022,13.1939698 62.8987052,12.9979899 62.6224518,12.8291457 C63.8115427,12.7386935 65.9615152,13.3386935 67.2346832,13.7095477 C67.7931956,13.8723618 68.2646281,13.8271357 68.7660882,13.9778894 C69.3306061,14.1467337 69.8140496,14.5055276 70.3935813,14.6321608 C71.2223416,14.8160804 71.1202479,14.3849246 71.4445455,14.7165829 C72.1592011,15.4552764 73.0600275,16.7005025 72.4594766,17.840201 Z" id="Shape" fill="url(#linearGradient-3)" fill-rule="nonzero"></path>
                        <g transform="translate(0.000000, 15.376884)">
                            <path d="M55.3978237,34.118593 C55.1425895,34.1276382 54.8843526,34.1366834 54.6261157,34.1366834 C54.3768871,34.1366834 54.1276584,34.1276382 53.8814325,34.118593 C53.8604132,34.519598 53.8153719,34.8994975 53.7433058,35.2582915 C54.0375758,35.2703518 54.328843,35.279397 54.6261157,35.279397 C54.9053719,35.279397 55.1846281,35.2703518 55.4608815,35.2613065 C55.3738017,34.8904523 55.3467769,34.5105528 55.3978237,34.118593 Z" id="Path" fill="url(#linearGradient-4)"></path>
                            <path d="M52.4160882,23.5025126 L52.4160882,22.959799 C50.5784022,22.881407 50.2210744,22.6040201 50.2210744,20.6321608 L50.2210744,14.1256281 L59.031157,14.1256281 L59.031157,20.6321608 C59.031157,22.601005 58.6738292,22.881407 56.8361433,22.959799 L56.8361433,23.5025126 C57.6829201,23.4482412 59.031157,23.4241206 60.2773003,23.4241206 C61.6915978,23.4241206 62.9887879,23.4512563 63.7424793,23.5025126 L63.7424793,22.959799 C61.9047934,22.881407 61.5474656,22.6040201 61.5474656,20.6321608 L61.5474656,7.19396985 C61.5474656,5.22512563 61.9047934,4.94472362 63.7424793,4.86633166 L63.7424793,4.32361809 C62.9887879,4.37788945 61.6915978,4.40201005 60.2773003,4.40201005 C59.0341598,4.40201005 57.6829201,4.37487437 56.8361433,4.32361809 L56.8361433,4.86633166 C58.6738292,4.94472362 59.031157,5.22211055 59.031157,7.19396985 L59.031157,13.5829146 L50.2210744,13.5829146 L50.2210744,7.19396985 C50.2210744,5.22512563 50.5784022,4.94472362 52.4160882,4.86633166 L52.4160882,4.32361809 C51.5813223,4.37788945 50.2210744,4.40201005 48.9749311,4.40201005 C47.5726446,4.40201005 46.2634435,4.37487437 45.5097521,4.32361809 L45.5097521,4.86633166 C47.347438,4.94472362 47.7047658,5.22211055 47.7047658,7.19396985 L47.7047658,20.6321608 C47.7047658,22.601005 47.347438,22.881407 45.5097521,22.959799 L45.5097521,23.5025126 C46.2634435,23.4482412 47.5726446,23.4241206 48.9749311,23.4241206 C50.2210744,23.4211055 51.5843251,23.4482412 52.4160882,23.5025126 Z M59.4575482,21.7417085 C59.4575482,20.8854271 59.4575482,5.74673367 59.4575482,5.74673367 C59.4575482,5.74673367 59.4185124,4.89045226 58.9440771,4.89045226 C58.9440771,4.89045226 60.0881267,4.66432161 60.0881267,5.88542714 C60.0881267,7.10653266 60.0881267,21.9346734 60.0881267,21.9346734 C60.0881267,21.9346734 60.1301653,22.7035176 60.6826722,22.8090452 C59.2083196,22.8090452 58.9470799,22.878392 58.9470799,22.878392 C58.9470799,22.878392 59.4575482,22.5979899 59.4575482,21.7417085 Z M48.1011295,21.7417085 C48.1011295,20.8854271 48.1011295,5.74673367 48.1011295,5.74673367 C48.1011295,5.74673367 48.0620937,4.89045226 47.5876584,4.89045226 C47.5876584,4.89045226 48.731708,4.66432161 48.731708,5.88542714 C48.731708,7.10653266 48.731708,21.9346734 48.731708,21.9346734 C48.731708,21.9346734 48.7767493,22.7035176 49.3262534,22.8090452 C47.8488981,22.8090452 47.5906612,22.878392 47.5906612,22.878392 C47.5906612,22.878392 48.1011295,22.5979899 48.1011295,21.7417085 Z" id="Shape" fill="url(#linearGradient-5)"></path>
                            <path d="M104.303691,27.7959799 C101.505124,26.9969849 98.6194766,28.0371859 98.4453168,31.3417085 C101.880468,31.8663317 101.276915,29.7316583 102.880386,29.4663317 C102.315868,29.8371859 102.246804,30.4582915 102.261818,30.838191 C105.081405,29.9035176 108.153223,28.8331658 108.390441,33.4371859 C108.780799,41.0050251 98.8026446,42.5276382 91.1726446,39.4281407 C88.2930028,38.2582915 85.9028099,36.8201005 83.5816804,35.2824121 L82.509697,35.8371859 C84.2573003,36.9437186 85.7016253,37.7879397 86.8216529,38.3879397 C88.5782645,39.3286432 89.9295041,40.3477387 90.629146,40.9145729 C97.0850689,43.8874372 105.588871,41.6231156 107.642755,37.9326633 C110.690551,32.4572864 107.35449,28.6673367 104.303691,27.7959799 Z" id="Path" fill="url(#linearGradient-6)"></path>
                            <path d="M82.1763912,35.6291457 C83.4285399,35.0351759 84.6686777,34.4532663 85.8968044,33.9376884 C90.6081267,31.959799 91.8452617,33.5638191 92.9712948,35.3125628 C92.9712948,35.3125628 92.9712948,35.3125628 92.9712948,35.3125628 C93.2445455,35.5537688 93.3736639,35.1678392 93.3316253,34.6884422 C93.3316253,34.6884422 93.5147934,36.3407035 94.1693939,36.919598 C94.1723967,36.9226131 94.1723967,36.9226131 94.1753994,36.9256281 C94.1753994,36.9256281 94.1753994,36.9256281 94.1753994,36.9256281 C95.0161708,37.6221106 96.1241873,37.5678392 96.1241873,37.5678392 C96.1241873,37.5678392 95.9470248,30.0482412 83.5426446,33.8020101 C82.6238017,34.079397 81.7049587,34.3959799 80.7861157,34.7336683 C81.2695592,35.0442211 81.7349862,35.3457286 82.1763912,35.6291457 Z" id="Path" fill="url(#linearGradient-7)"></path>
                            <path d="M74.8466667,37.1668342 C67.739146,40.2271357 60.9739394,43.2 55.6710744,40.2603015 C58.7729201,43.2482412 66.7392287,41.8643216 74.9607713,38.8341709 C75.0568595,38.7979899 75.1499449,38.758794 75.2430303,38.7226131 C75.0058127,38.2733668 74.891708,37.7396985 74.8586777,37.2452261 C74.8556749,37.2180905 74.8526722,37.1909548 74.8466667,37.1668342 Z" id="Path" fill="url(#linearGradient-8)"></path>
                            <path d="M78.3749036,33.1145729 C79.116584,33.6211055 79.8132231,34.0854271 80.4828375,34.5286432 L81.7800275,34.0673367 C80.9092287,33.4703518 80.023416,32.8673367 79.116584,32.2673367 C80.3987603,32.1557789 81.725978,31.6944724 82.533719,30.5638191 C85.6115427,26.2462312 80.7861157,22.7065327 78.5550689,23.641206 C78.5640771,23.6321608 78.5700826,23.6231156 78.5820937,23.6140704 C78.5430579,23.5296482 77.7893664,24.0331658 77.4500551,24.5788945 C76.4020937,26.2673367 77.6422314,27.4251256 77.6422314,27.4251256 C78.786281,26.1376884 78.9604408,25.1155779 78.8163085,24.3346734 C78.6811846,23.6110553 77.414022,24.7386935 77.4980992,26.2974874 C77.414022,26.2613065 77.4500551,24.5879397 78.3598898,24.0180905 C78.7382369,23.8190955 79.2787328,23.6954774 80.0204132,23.8613065 C81.8761157,24.280402 83.8158953,27.6060302 80.9933058,30.3437186 C78.957438,32.318593 76.1318457,31.7728643 74.303168,31.001005 C75.1769697,31.2542714 76.3660606,31.398995 77.4860882,31.2030151 C75.5102755,29.9517588 73.3633058,28.7306533 70.8319835,27.6211055 C70.7809366,27.5969849 70.7298898,27.5788945 70.678843,27.5577889 C73.4173554,24.1175879 75.0568595,19.7788945 75.0568595,15.0572864 C75.0568595,9.57889447 72.8348209,4.38090452 68.8681818,0.56080402 L68.5438843,0.250251256 L68.5378788,0.289447236 C71.9460055,3.85628141 74.0479339,8.73165829 74.0479339,14.1075377 C74.0479339,15.4251256 73.9218182,16.7095477 73.6815978,17.9547739 C73.1501102,21.401005 71.6877686,24.5457286 69.5558127,27.1266332 C69.3546281,27.0572864 69.1504408,26.9969849 68.9462534,26.9306533 C71.7147934,23.6472362 73.3873278,19.4050251 73.3873278,14.7648241 C73.3873278,10.1035176 71.6997796,5.83718593 68.9072176,2.54773869 C71.3784848,5.65628141 72.8528375,9.5879397 72.8528375,13.8633166 C72.8528375,18.0180905 71.4595592,21.8442211 69.1174105,24.9075377 C68.7090358,25.4924623 68.2676309,26.0532663 67.7931956,26.5839196 C61.2772176,24.919598 56.4067493,27.6422111 55.8001928,32.4603015 C55.4128375,32.4874372 55.0194766,32.4994975 54.6261157,32.4994975 C54.193719,32.4994975 53.7673278,32.481407 53.3439394,32.4512563 C52.7373829,27.6603015 47.9119559,24.9467337 41.444022,26.5628141 C41.444022,26.5628141 41.4410193,26.5628141 41.4410193,26.5628141 C40.9755923,26.038191 40.5401928,25.4864322 40.1378237,24.9075377 C37.7926722,21.8442211 36.3993939,18.0150754 36.3993939,13.8603015 C36.3993939,9.59396985 37.867741,5.67437186 40.3269972,2.56884422 C37.5464463,5.85527638 35.8679063,10.1095477 35.8679063,14.758794 C35.8679063,19.3839196 37.5314325,23.6170854 40.2849587,26.8944724 C40.0837741,26.9577889 39.8825895,27.0241206 39.6844077,27.0934673 C37.5614601,24.518593 36.1021212,21.3859296 35.5706336,17.9487437 C35.3304132,16.7035176 35.2042975,15.4190955 35.2042975,14.1015075 C35.2042975,8.78894472 37.2581818,3.96482412 40.5972452,0.407035176 L40.5822314,0.361809045 L40.305978,0.630150754 C36.3843802,4.44422111 34.1953719,9.60904523 34.1953719,15.0482412 C34.1953719,19.7547739 35.8258678,24.078392 38.5493664,27.5155779 C38.4712948,27.5487437 38.3932231,27.5758794 38.3121488,27.6120603 C35.7808264,28.721608 33.6338567,29.9427136 31.6580441,31.1939698 C32.7810744,31.3899497 33.9701653,31.2452261 34.8439669,30.9919598 C33.0152893,31.760804 30.189697,32.3095477 28.1538292,30.3346734 C25.3312397,27.5969849 27.2710193,24.2713568 29.1267218,23.8522613 C29.8684022,23.6834171 30.4088981,23.8100503 30.7872452,24.0090452 C31.6940771,24.5788945 31.7331129,26.2522613 31.6490358,26.2884422 C31.7331129,24.7296482 30.4659504,23.6020101 30.3308264,24.3256281 C30.1866942,25.1065327 30.360854,26.1286432 31.5049036,27.4160804 C31.5049036,27.4160804 32.7450413,26.2582915 31.6970799,24.5698492 C31.3577686,24.0241206 30.6040771,23.520603 30.5650413,23.6050251 C30.5770523,23.6140704 30.5830579,23.6231156 30.5920661,23.6321608 C28.3610193,22.6974874 23.5355923,26.2341709 26.613416,30.5547739 C27.421157,31.6884422 28.7483747,32.1467337 30.030551,32.2582915 C29.1267218,32.8613065 28.2409091,33.4643216 27.3671074,34.0582915 L28.6642975,34.519598 C29.3339118,34.0763819 30.030551,33.6120603 30.7722314,33.1055276 C23.5926446,39.0874372 20.1184573,38.6834171 17.6501928,42.9949749 C17.6501928,42.9949749 21.1243802,43.8844221 26.466281,38.7768844 C30.3638567,35.0502513 35.1892837,30.2683417 40.0507438,28.1879397 C40.3900551,28.0432161 40.7443802,27.9165829 41.0987052,27.798995 C41.407989,28.121608 41.726281,28.438191 42.056584,28.7366834 C41.8493939,28.8030151 41.6422039,28.8723618 41.4350138,28.9477387 C41.1947934,28.7276382 40.9605785,28.5045226 40.7353719,28.2723618 C40.6693113,28.2994975 40.6032507,28.320603 40.5371901,28.3477387 C40.2309091,28.4773869 39.9276309,28.6190955 39.6243526,28.7698492 C39.8345455,28.9929648 40.0507438,29.2100503 40.2729477,29.4241206 C38.2010468,30.3708543 36.3333333,31.7065327 34.855978,32.9487437 C34.8529752,32.9517588 34.8589807,32.9427136 34.8499725,32.9517588 C33.5978237,33.8984925 32.210551,35.4241206 31.8111846,35.8643216 C31.8081818,35.8703518 31.8021763,35.8733668 31.7991736,35.879397 C31.7751515,35.9065327 31.757135,35.9276382 31.7361157,35.9517588 C31.4688705,35.8341709 31.2166391,35.7286432 30.5109917,35.4663317 C30.1116253,35.8100503 29.6972452,36.2653266 29.3759504,36.6603015 C30.201708,37.0552764 30.4539394,37.1758794 30.7722314,37.3175879 C29.1687603,40.160804 30.2617631,42.6934673 30.2617631,42.6934673 C33.2044628,40.0130653 34.1142975,37.561809 34.3184848,35.6110553 C33.3035537,36.0844221 31.7241047,37.7306533 30.9253719,40.0914573 C30.9253719,40.0914573 31.2136364,38.5809045 32.4838017,36.7628141 C32.5949036,36.6030151 32.7150138,36.440201 32.8441322,36.2773869 C32.8561433,36.2623116 32.8681543,36.2472362 32.8801653,36.2321608 C32.99427,36.0844221 33.1203857,35.9366834 33.2495041,35.7859296 C33.2765289,35.7557789 33.300551,35.7256281 33.3275758,35.6924623 C33.447686,35.5567839 33.5798072,35.4180905 33.7119284,35.279397 C33.7509642,35.240201 33.7839945,35.201005 33.8260331,35.158794 C33.9971901,34.9839196 34.1803581,34.8120603 34.3725344,34.640201 C34.6487879,34.3929648 34.8739945,34.2150754 35.0691736,34.0643216 C36.8287879,32.4060302 39.4381818,30.3979899 42.669146,29.2582915 C45.2545179,31.4080402 48.4224242,32.8733668 51.8996143,33.3829146 C51.8936088,33.560804 51.8815978,33.7386935 51.8605785,33.9165829 C50.0349036,33.6572864 48.290303,33.1477387 46.6688154,32.4180905 C47.0081267,32.9758794 47.1252342,33.5969849 47.1582645,33.8623116 C48.5875758,34.4170854 50.0949587,34.8180905 51.6593939,35.0442211 C51.6263636,35.1859296 51.5873278,35.3246231 51.548292,35.4603015 C50.6204408,38.5959799 45.4196694,39.7688442 43.9693388,37.3778894 C42.5190083,34.9869347 44.8821763,32.758794 46.6838292,33.8351759 C46.6838292,33.8351759 46.5096694,31.2512563 44.371708,31.1939698 C43.6750689,30.7567839 43.0114601,30.2773869 42.3808815,29.761809 C42.3358402,29.7798995 42.2907989,29.7949749 42.2487603,29.8130653 C41.9184573,29.9969849 41.555124,30.120603 41.2128099,30.2834171 C41.7232782,30.7266332 42.2547658,31.1457286 42.8072727,31.5376884 C42.7832507,31.5497487 42.7562259,31.558794 42.7322039,31.5708543 C40.9335537,32.6894472 41.137741,34.4864322 41.4410193,35.4994975 C41.4230028,35.5085427 41.407989,35.520603 41.3899725,35.5296482 C41.1557576,35.1015075 40.9245455,34.8301508 40.7233609,34.6582915 C40.6452893,36.4944724 41.7232782,38.5417085 43.6930854,39.4160804 C47.200303,40.9718593 53.3649587,39.7115578 53.4069972,33.5457286 C53.8093664,33.5728643 54.2147383,33.5909548 54.6261157,33.5909548 C55.0014601,33.5909548 55.3707989,33.5758794 55.7401377,33.5547739 C55.7881818,39.7115578 61.946832,40.9718593 65.4540496,39.4160804 C67.4238567,38.5417085 68.5018457,36.4974874 68.4237741,34.6582915 C68.2225895,34.8301508 67.9913774,35.1015075 67.7571625,35.5296482 C67.739146,35.520603 67.7241322,35.5085427 67.7061157,35.4994975 C68.0093939,34.4864322 68.2135813,32.6894472 66.4149311,31.5708543 C66.4089256,31.5678392 66.4029201,31.5648241 66.3969146,31.5648241 C66.9284022,31.1939698 67.4418733,30.8020101 67.9313223,30.3829146 C67.8262259,30.3105528 67.7181267,30.238191 67.6070248,30.1778894 C67.3517906,30.039196 67.0845455,29.9306533 66.820303,29.8130653 C66.2017355,30.3135678 65.547135,30.7718593 64.8685124,31.1939698 C62.6374656,31.1728643 62.4573003,33.838191 62.4573003,33.838191 C64.2589532,32.761809 66.6221212,34.9929648 65.1717906,37.3809045 C63.7214601,39.7718593 58.5206887,38.6020101 57.5928375,35.4633166 C57.5538017,35.3306533 57.5177686,35.1979899 57.4847383,35.0623116 C59.0461708,34.8452261 60.550551,34.4502513 61.9798623,33.9045226 C62.0008815,33.3859296 62.2200826,32.8552764 62.5293664,32.4422111 C60.8898623,33.1718593 59.1302479,33.681407 57.2865565,33.9316583 C57.2685399,33.7567839 57.2535262,33.5788945 57.2475207,33.401005 C60.7517355,32.9065327 63.9496694,31.4472362 66.5530579,29.2884422 C69.747989,30.4341709 72.3333609,32.4211055 74.0779614,34.0673367 C74.2761433,34.2150754 74.4983471,34.3959799 74.7746006,34.6432161 C74.9667769,34.8150754 75.1499449,34.9899497 75.3211019,35.161809 C75.3601377,35.201005 75.3961708,35.240201 75.4352066,35.2824121 C75.5673278,35.4211055 75.699449,35.5567839 75.8195592,35.6954774 C75.846584,35.7256281 75.8706061,35.7557789 75.8976309,35.7889447 C76.0267493,35.9366834 76.1498623,36.0874372 76.2669697,36.2351759 C76.2789807,36.2502513 76.2909917,36.2653266 76.3030028,36.280402 C76.4171074,36.4281407 76.5252066,36.5728643 76.6273003,36.7175879 C76.642314,36.7417085 76.6603306,36.7628141 76.6783471,36.7869347 C76.7384022,36.8743719 76.7954545,36.961809 76.8525069,37.0462312 C76.8675207,37.0673367 76.8825344,37.0914573 76.8975482,37.1155779 C77.9695317,38.7738693 78.2217631,40.0944724 78.2217631,40.0944724 C77.4230303,37.7306533 75.8435813,36.0844221 74.8316529,35.6140704 C75.0358402,37.5648241 75.9486777,40.0160804 78.8883747,42.6964824 C78.8883747,42.6964824 79.9633609,40.2060302 78.4169421,37.3899497 C78.8313223,37.2090452 79.0144904,37.118593 79.9783747,36.6603015 C79.6570799,36.2653266 79.2426997,35.8100503 78.8433333,35.4663317 C78.0085675,35.7798995 77.8073829,35.8673367 77.4710744,36.0180905 C77.4350413,35.9758794 77.3930028,35.9306533 77.3479614,35.8824121 C77.3419559,35.8763819 77.3389532,35.8733668 77.3359504,35.8673367 C76.936584,35.4271357 75.5493113,33.8984925 74.2971625,32.9547739 C74.2851515,32.9457286 74.2941598,32.9547739 74.291157,32.9517588 C72.8288154,31.7246231 70.9881267,30.4040201 68.9492562,29.4603015 C69.2585399,29.158794 69.5618182,28.8512563 69.8530854,28.5286432 C74.4593113,30.7567839 78.9874656,35.2371859 82.6838567,38.7708543 C88.0257576,43.878392 91.4999449,42.9889447 91.4999449,42.9889447 C89.0286777,38.6924623 85.5544904,39.0964824 78.3749036,33.1145729 Z M43.3417631,28.4080402 C42.9784298,28.1035176 42.6271074,27.7869347 42.2907989,27.4552764 C42.2907989,27.4552764 42.2907989,27.4552764 42.2907989,27.4552764 C43.3447658,27.1959799 44.3927273,27.0844221 45.4286777,27.1809045 C49.5694766,27.5698492 51.2900551,29.5356784 51.7614876,31.721608 C51.2089807,29.9819095 49.3833058,27.1537688 43.3417631,28.4080402 C43.3417631,28.4080402 43.3417631,28.4080402 43.3417631,28.4080402 Z M43.9363085,28.881407 C49.2001377,27.5095477 51.2720386,30.4613065 51.830551,32.1045226 C51.8395592,32.1648241 51.8485675,32.2221106 51.8575758,32.2824121 C48.9088705,31.8180905 46.2063912,30.6211055 43.9363085,28.881407 Z M63.7214601,27.1809045 C64.7904408,27.081407 65.8714325,27.1899497 66.9584298,27.4613065 C66.6161157,27.7959799 66.2587879,28.121608 65.889449,28.4261307 C65.8624242,28.4201005 65.8323967,28.4110553 65.8053719,28.4050251 C59.0251515,27 57.6198623,30.7296482 57.3105785,32.2944724 C57.304573,32.2944724 57.2985675,32.2974874 57.292562,32.2974874 C57.5748209,29.8914573 59.2203306,27.6030151 63.7214601,27.1809045 Z M65.2888981,28.9025126 C63.0068044,30.6422111 60.2893113,31.8361809 57.3315978,32.2944724 C57.782011,30.6994975 59.7548209,27.4221106 65.2888981,28.9025126 Z M67.7931956,28.9899497 C67.5860055,28.9115578 67.3788154,28.839196 67.1686226,28.7728643 C67.5019284,28.4713568 67.8232231,28.1547739 68.1355096,27.8291457 C68.327686,27.8984925 68.522865,27.9678392 68.7120386,28.0371859 C68.7210468,28.040201 68.7300551,28.0462312 68.7390634,28.0492462 C68.4327824,28.3718593 68.1204959,28.6854271 67.7931956,28.9899497 Z" id="Shape" fill="url(#linearGradient-9)"></path>
                            <path d="M22.3254821,38.3879397 C23.4455096,37.7879397 24.886832,36.9437186 26.637438,35.8371859 L25.5654545,35.2824121 C23.2473278,36.8201005 20.8541322,38.2582915 17.9744904,39.4281407 C10.3444904,42.5306533 0.366336088,41.0080402 0.75369146,33.4371859 C0.990909091,28.8301508 4.06272727,29.9035176 6.88231405,30.838191 C6.89732782,30.4582915 6.82826446,29.8371859 6.26374656,29.4663317 C7.86721763,29.7286432 7.26366391,31.8663317 10.6988154,31.3417085 C10.5276584,28.0371859 7.64201102,26.9969849 4.84044077,27.7959799 C1.78663912,28.6673367 -1.54641873,32.4572864 1.50137741,37.9386935 C3.55526171,41.6291457 12.0590634,43.8904523 18.5119835,40.920603 C19.2176309,40.3477387 20.5718733,39.3286432 22.3254821,38.3879397 Z" id="Path" fill="url(#linearGradient-10)"></path>
                            <path d="M15.1729201,36.9226131 C15.1729201,36.9226131 15.1759229,36.919598 15.1729201,36.9226131 C15.1759229,36.919598 15.1789256,36.9165829 15.1789256,36.9165829 C15.8335262,36.3407035 16.0166942,34.6854271 16.0166942,34.6854271 C15.9746556,35.1648241 16.1037741,35.5507538 16.3770248,35.3095477 C16.3770248,35.3095477 16.3770248,35.3095477 16.3770248,35.3095477 C17.5060606,33.560804 18.7401928,31.9567839 23.4515152,33.9346734 C24.6796419,34.4502513 25.9227824,35.0321608 27.1719284,35.6261307 C27.6133333,35.3457286 28.0787603,35.041206 28.5592011,34.7276382 C27.6403581,34.3869347 26.7215152,34.0733668 25.8026722,33.7959799 C13.4012948,30.0422111 13.2211295,37.561809 13.2211295,37.561809 C13.2211295,37.561809 14.3321488,37.6190955 15.1729201,36.9226131 Z" id="Path" fill="url(#linearGradient-11)"></path>
                            <path d="M34.3815427,37.121608 C34.2344077,37.6251256 33.9881818,38.1105528 33.7119284,38.5748744 C33.9311295,38.6623116 34.1473278,38.7497487 34.3665289,38.8311558 C42.4949862,41.8613065 50.3712121,43.2452261 53.4400275,40.2572864 C48.1701928,43.2150754 41.4410193,40.1969849 34.3815427,37.121608 Z" id="Path" fill="url(#linearGradient-12)"></path>
                        </g>
                    </g>
                </g>
            </g>
        </g>
    </g>
</svg>