<svg xmlns="http://www.w3.org/2000/svg" width="25" height="24" viewBox="0 0 25 24">
    <g fill="none" fill-rule="evenodd">
        <g stroke="#C2A07C">
            <g transform="translate(-540 -439) translate(540.5 439)">
                <path stroke-linecap="round" d="M18.046 4h.185C19.76 4 21 5.246 21 6.783v10.434C21 18.754 19.76 20 18.23 20H5.77C4.24 20 3 18.754 3 17.217V6.783C3 5.246 4.24 4 5.77 4h1.084M9.11 4L16 4M7 5L7 3M16 5L16 3M3.5 8L18.075 8"/>
                <circle cx="7" cy="12" r="1"/>
                <circle cx="7" cy="16" r="1"/>
                <circle cx="12" cy="12" r="1"/>
                <circle cx="12" cy="16" r="1"/>
                <circle cx="17" cy="12" r="1"/>
            </g>
        </g>
    </g>
</svg>
